<svg width="645" height="208" viewBox="0 0 645 208" fill="none" xmlns="http://www.w3.org/2000/svg">
<path d="M7.42 4.8C10.18 4.8 12 6.28 12 8.54C12 10.44 10.78 11.72 8.86 12.02C10.7 12.3 11.36 13.42 11.56 15.58C11.72 17.38 12.14 18.32 12.54 19H10.62C10.34 18.34 10 17.54 9.82 15.52C9.64 13.44 8.92 12.74 6.76 12.74H3.22V19H1.52V4.8H7.42ZM6.96 11.26C9.12 11.26 10.26 10.42 10.26 8.8C10.26 7.16 9.12 6.34 6.96 6.34H3.22V11.26H6.96ZM14.3111 13.9C14.3111 10.86 16.2111 8.6 19.2111 8.6C22.3111 8.6 24.1711 11.14 24.0311 14.22H15.9911C16.0711 16.44 17.2311 17.94 19.2911 17.94C20.9111 17.94 21.7711 16.96 22.1711 15.76H23.8311C23.2511 17.8 21.6511 19.24 19.2911 19.24C16.2711 19.24 14.3111 16.98 14.3111 13.9ZM22.3511 12.98C22.0511 11.14 20.9711 9.9 19.2111 9.9C17.4311 9.9 16.3311 11.12 16.0511 12.98H22.3511ZM30.4677 19.24C27.8277 19.24 26.1077 17 26.1077 13.92C26.1077 10.84 27.8277 8.6 30.4677 8.6C31.9877 8.6 33.0877 9.28 33.7477 10.46V4.8H35.3077V19H33.7477V17.38C33.0877 18.56 31.9877 19.24 30.4677 19.24ZM30.7877 17.94C32.7077 17.94 33.7877 16.24 33.7877 13.92C33.7877 11.6 32.7077 9.9 30.7877 9.9C28.8677 9.9 27.7877 11.6 27.7877 13.92C27.7877 16.24 28.8677 17.94 30.7877 17.94ZM41.8609 19.24C39.7809 19.24 38.5409 17.94 38.5409 15.94V8.8H40.1009V15.68C40.1009 17.08 40.7809 17.9 42.3409 17.9C43.8409 17.9 45.1009 16.7 45.1009 14.74V8.8H46.6609V19H45.1009V17.28C44.6409 18.32 43.6809 19.24 41.8609 19.24ZM58.7273 15.66C58.2073 17.92 56.6273 19.24 54.2873 19.24C51.3273 19.24 49.3673 16.98 49.3673 13.9C49.3673 10.86 51.3073 8.6 54.2673 8.6C56.6273 8.6 58.2073 9.94 58.7273 12.18H57.0673C56.7073 10.7 55.7673 9.9 54.2673 9.9C52.2273 9.9 51.0473 11.58 51.0473 13.9C51.0473 16.24 52.2473 17.94 54.2873 17.94C55.8673 17.94 56.7073 17.04 57.0673 15.66H58.7273ZM60.6752 13.9C60.6752 10.86 62.5752 8.6 65.5752 8.6C68.6752 8.6 70.5352 11.14 70.3952 14.22H62.3552C62.4352 16.44 63.5952 17.94 65.6552 17.94C67.2752 17.94 68.1352 16.96 68.5352 15.76H70.1952C69.6152 17.8 68.0152 19.24 65.6552 19.24C62.6352 19.24 60.6752 16.98 60.6752 13.9ZM68.7152 12.98C68.4152 11.14 67.3352 9.9 65.5752 9.9C63.7952 9.9 62.6952 11.12 62.4152 12.98H68.7152ZM76.8917 19.24C74.1117 19.24 72.4717 17.92 72.2917 15.7H73.9117C74.0717 17.4 75.3317 18 76.8917 18C78.5717 18 79.2317 17.14 79.2317 16.18C79.2317 15.04 78.4917 14.76 76.6117 14.28C74.6317 13.78 72.6717 13.38 72.6717 11.32C72.6717 9.72 74.2117 8.56 76.6117 8.56C79.0917 8.56 80.4917 9.86 80.7317 11.64H79.1317C78.9717 10.46 78.0717 9.8 76.6117 9.8C75.1717 9.8 74.3117 10.46 74.3117 11.24C74.3117 12.28 75.3717 12.54 77.1117 12.98C79.2117 13.5 80.8717 14.04 80.8717 16.08C80.8717 18.1 79.2717 19.24 76.8917 19.24ZM91.5236 6.08C90.7036 6.08 90.5036 6.42 90.5036 7.38V8.8H92.7436V10.08H90.5036V19H88.9436V10.08H87.3436V8.8H88.9436V7.28C88.9436 5.6 89.4836 4.8 91.1236 4.8H92.7436V6.08H91.5236ZM97.61 19.24C95.63 19.24 94.05 18.12 94.05 16.14C94.05 14.04 95.67 13.52 98.23 12.82C99.85 12.38 100.95 12.16 100.95 11.26C100.95 10.46 100.15 9.82 98.63 9.82C97.11 9.82 96.11 10.46 95.99 11.76H94.37C94.63 9.94 96.13 8.6 98.63 8.6C101.07 8.6 102.51 9.7 102.51 11.66V19H101.01V17.1C100.63 18.28 99.53 19.24 97.61 19.24ZM97.95 18.04C99.91 18.04 101.01 16.36 101.01 14.5V12.48C100.73 13.12 99.95 13.46 98.65 13.82C96.89 14.3 95.73 14.78 95.73 16.14C95.73 17.38 96.69 18.04 97.95 18.04ZM110.064 10.08H107.824V16.42C107.824 17.42 107.964 17.72 108.844 17.72H110.064V19H108.444C106.704 19 106.264 18.2 106.264 16.52V10.08H104.664V8.8H106.264V6.08H107.824V8.8H110.064V10.08ZM112.599 4.8H114.159V6.8H112.599V4.8ZM112.599 8.8H114.159V19H112.599V8.8ZM121.701 22.64C119.121 22.64 117.581 21.32 117.281 19.6H118.921C119.181 20.64 120.041 21.38 121.701 21.38C123.581 21.38 124.521 20.44 124.521 18.46V17.1C123.861 18.28 122.741 18.88 121.241 18.88C118.601 18.88 116.881 16.72 116.881 13.72C116.881 10.76 118.601 8.6 121.241 8.6C122.741 8.6 123.861 9.28 124.521 10.46V8.8H126.081V18.14C126.081 20.98 124.761 22.64 121.701 22.64ZM121.561 17.58C123.481 17.58 124.561 15.96 124.561 13.72C124.561 11.52 123.481 9.9 121.561 9.9C119.641 9.9 118.561 11.52 118.561 13.72C118.561 15.96 119.641 17.58 121.561 17.58ZM132.634 19.24C130.554 19.24 129.314 17.94 129.314 15.94V8.8H130.874V15.68C130.874 17.08 131.554 17.9 133.114 17.9C134.614 17.9 135.874 16.7 135.874 14.74V8.8H137.434V19H135.874V17.28C135.414 18.32 134.454 19.24 132.634 19.24ZM140.141 13.9C140.141 10.86 142.041 8.6 145.041 8.6C148.141 8.6 150.001 11.14 149.861 14.22H141.821C141.901 16.44 143.061 17.94 145.121 17.94C146.741 17.94 147.601 16.96 148.001 15.76H149.661C149.081 17.8 147.481 19.24 145.121 19.24C142.101 19.24 140.141 16.98 140.141 13.9ZM148.181 12.98C147.881 11.14 146.801 9.9 145.041 9.9C143.261 9.9 142.161 11.12 141.881 12.98H148.181ZM160.241 19.24C158.261 19.24 156.681 18.12 156.681 16.14C156.681 14.04 158.301 13.52 160.861 12.82C162.481 12.38 163.581 12.16 163.581 11.26C163.581 10.46 162.781 9.82 161.261 9.82C159.741 9.82 158.741 10.46 158.621 11.76H157.001C157.261 9.94 158.761 8.6 161.261 8.6C163.701 8.6 165.141 9.7 165.141 11.66V19H163.641V17.1C163.261 18.28 162.161 19.24 160.241 19.24ZM160.581 18.04C162.541 18.04 163.641 16.36 163.641 14.5V12.48C163.361 13.12 162.581 13.46 161.281 13.82C159.521 14.3 158.361 14.78 158.361 16.14C158.361 17.38 159.321 18.04 160.581 18.04ZM168.376 8.8H169.936V10.52C170.436 9.54 171.436 8.6 173.296 8.6C175.496 8.6 176.656 9.86 176.656 11.86V19H175.096V12.12C175.096 10.72 174.436 9.9 172.756 9.9C171.196 9.9 169.936 11.1 169.936 13.06V19H168.376V8.8ZM183.658 19.24C181.018 19.24 179.298 17 179.298 13.92C179.298 10.84 181.018 8.6 183.658 8.6C185.178 8.6 186.278 9.28 186.938 10.46V4.8H188.498V19H186.938V17.38C186.278 18.56 185.178 19.24 183.658 19.24ZM183.978 17.94C185.898 17.94 186.978 16.24 186.978 13.92C186.978 11.6 185.898 9.9 183.978 9.9C182.058 9.9 180.978 11.6 180.978 13.92C180.978 16.24 182.058 17.94 183.978 17.94ZM201.455 19.24C199.935 19.24 198.835 18.56 198.175 17.38V19H196.615V4.8H198.175V10.46C198.835 9.28 199.935 8.6 201.455 8.6C204.095 8.6 205.815 10.84 205.815 13.92C205.815 17 204.095 19.24 201.455 19.24ZM201.135 17.94C203.055 17.94 204.135 16.24 204.135 13.92C204.135 11.6 203.055 9.9 201.135 9.9C199.215 9.9 198.135 11.6 198.135 13.92C198.135 16.24 199.215 17.94 201.135 17.94ZM212.789 19.24C209.829 19.24 207.909 16.98 207.909 13.9C207.909 10.86 209.829 8.6 212.789 8.6C215.749 8.6 217.669 10.86 217.669 13.9C217.669 16.98 215.749 19.24 212.789 19.24ZM212.789 17.94C214.809 17.94 215.989 16.24 215.989 13.9C215.989 11.58 214.809 9.9 212.789 9.9C210.769 9.9 209.589 11.58 209.589 13.9C209.589 16.24 210.769 17.94 212.789 17.94ZM224.624 19.24C221.664 19.24 219.744 16.98 219.744 13.9C219.744 10.86 221.664 8.6 224.624 8.6C227.584 8.6 229.504 10.86 229.504 13.9C229.504 16.98 227.584 19.24 224.624 19.24ZM224.624 17.94C226.644 17.94 227.824 16.24 227.824 13.9C227.824 11.58 226.644 9.9 224.624 9.9C222.604 9.9 221.424 11.58 221.424 13.9C221.424 16.24 222.604 17.94 224.624 17.94ZM236.019 19.24C233.239 19.24 231.599 17.92 231.419 15.7H233.039C233.199 17.4 234.459 18 236.019 18C237.699 18 238.359 17.14 238.359 16.18C238.359 15.04 237.619 14.76 235.739 14.28C233.759 13.78 231.799 13.38 231.799 11.32C231.799 9.72 233.339 8.56 235.739 8.56C238.219 8.56 239.619 9.86 239.859 11.64H238.259C238.099 10.46 237.199 9.8 235.739 9.8C234.299 9.8 233.439 10.46 233.439 11.24C233.439 12.28 234.499 12.54 236.239 12.98C238.339 13.5 239.999 14.04 239.999 16.08C239.999 18.1 238.399 19.24 236.019 19.24ZM246.987 10.08H244.747V16.42C244.747 17.42 244.887 17.72 245.767 17.72H246.987V19H245.367C243.627 19 243.187 18.2 243.187 16.52V10.08H241.587V8.8H243.187V6.08H244.747V8.8H246.987V10.08ZM253.264 19.24C250.484 19.24 248.844 17.92 248.664 15.7H250.284C250.444 17.4 251.704 18 253.264 18C254.944 18 255.604 17.14 255.604 16.18C255.604 15.04 254.864 14.76 252.984 14.28C251.004 13.78 249.044 13.38 249.044 11.32C249.044 9.72 250.584 8.56 252.984 8.56C255.464 8.56 256.864 9.86 257.104 11.64H255.504C255.344 10.46 254.444 9.8 252.984 9.8C251.544 9.8 250.684 10.46 250.684 11.24C250.684 12.28 251.744 12.54 253.484 12.98C255.584 13.5 257.244 14.04 257.244 16.08C257.244 18.1 255.644 19.24 253.264 19.24ZM268.535 19.24C265.755 19.24 264.115 17.92 263.935 15.7H265.555C265.715 17.4 266.975 18 268.535 18C270.215 18 270.875 17.14 270.875 16.18C270.875 15.04 270.135 14.76 268.255 14.28C266.275 13.78 264.315 13.38 264.315 11.32C264.315 9.72 265.855 8.56 268.255 8.56C270.735 8.56 272.135 9.86 272.375 11.64H270.775C270.615 10.46 269.715 9.8 268.255 9.8C266.815 9.8 265.955 10.46 265.955 11.24C265.955 12.28 267.015 12.54 268.755 12.98C270.855 13.5 272.515 14.04 272.515 16.08C272.515 18.1 270.915 19.24 268.535 19.24ZM275.183 8.8H276.743V10.46C277.403 9.28 278.503 8.6 280.023 8.6C282.663 8.6 284.383 10.84 284.383 13.92C284.383 17 282.663 19.24 280.023 19.24C278.503 19.24 277.403 18.56 276.743 17.38V22.4H275.183V8.8ZM279.703 17.94C281.623 17.94 282.703 16.24 282.703 13.92C282.703 11.6 281.623 9.9 279.703 9.9C277.783 9.9 276.703 11.6 276.703 13.92C276.703 16.24 277.783 17.94 279.703 17.94ZM286.477 13.9C286.477 10.86 288.377 8.6 291.377 8.6C294.477 8.6 296.337 11.14 296.197 14.22H288.157C288.237 16.44 289.397 17.94 291.457 17.94C293.077 17.94 293.937 16.96 294.337 15.76H295.997C295.417 17.8 293.817 19.24 291.457 19.24C288.437 19.24 286.477 16.98 286.477 13.9ZM294.517 12.98C294.217 11.14 293.137 9.9 291.377 9.9C289.597 9.9 288.497 11.12 288.217 12.98H294.517ZM298.253 13.9C298.253 10.86 300.153 8.6 303.153 8.6C306.253 8.6 308.113 11.14 307.973 14.22H299.933C300.013 16.44 301.173 17.94 303.233 17.94C304.853 17.94 305.713 16.96 306.113 15.76H307.773C307.193 17.8 305.593 19.24 303.233 19.24C300.213 19.24 298.253 16.98 298.253 13.9ZM306.293 12.98C305.993 11.14 304.913 9.9 303.153 9.9C301.373 9.9 300.273 11.12 299.993 12.98H306.293ZM314.41 19.24C311.77 19.24 310.05 17 310.05 13.92C310.05 10.84 311.77 8.6 314.41 8.6C315.93 8.6 317.03 9.28 317.69 10.46V4.8H319.25V19H317.69V17.38C317.03 18.56 315.93 19.24 314.41 19.24ZM314.73 17.94C316.65 17.94 317.73 16.24 317.73 13.92C317.73 11.6 316.65 9.9 314.73 9.9C312.81 9.9 311.73 11.6 311.73 13.92C311.73 16.24 312.81 17.94 314.73 17.94ZM324.403 17V19H322.403V17H324.403ZM10.74 56.8H12.44V71H10.74V64.36H3.22V71H1.52V56.8H3.22V62.86H10.74V56.8ZM18.8077 71.24C16.8277 71.24 15.2477 70.12 15.2477 68.14C15.2477 66.04 16.8677 65.52 19.4277 64.82C21.0477 64.38 22.1477 64.16 22.1477 63.26C22.1477 62.46 21.3477 61.82 19.8277 61.82C18.3077 61.82 17.3077 62.46 17.1877 63.76H15.5677C15.8277 61.94 17.3277 60.6 19.8277 60.6C22.2677 60.6 23.7077 61.7 23.7077 63.66V71H22.2077V69.1C21.8277 70.28 20.7277 71.24 18.8077 71.24ZM19.1477 70.04C21.1077 70.04 22.2077 68.36 22.2077 66.5V64.48C21.9277 65.12 21.1477 65.46 19.8477 65.82C18.0877 66.3 16.9277 66.78 16.9277 68.14C16.9277 69.38 17.8877 70.04 19.1477 70.04ZM26.942 60.8H28.502V62.52C29.002 61.54 30.002 60.6 31.862 60.6C34.062 60.6 35.222 61.86 35.222 63.86V71H33.662V64.12C33.662 62.72 33.002 61.9 31.322 61.9C29.762 61.9 28.502 63.1 28.502 65.06V71H26.942V60.8ZM42.2247 71.24C39.5847 71.24 37.8647 69 37.8647 65.92C37.8647 62.84 39.5847 60.6 42.2247 60.6C43.7447 60.6 44.8447 61.28 45.5047 62.46V56.8H47.0647V71H45.5047V69.38C44.8447 70.56 43.7447 71.24 42.2247 71.24ZM42.5447 69.94C44.4647 69.94 45.5447 68.24 45.5447 65.92C45.5447 63.6 44.4647 61.9 42.5447 61.9C40.6247 61.9 39.5447 63.6 39.5447 65.92C39.5447 68.24 40.6247 69.94 42.5447 69.94ZM50.378 56.8H51.938V71H50.378V56.8ZM54.64 65.9C54.64 62.86 56.54 60.6 59.54 60.6C62.64 60.6 64.5 63.14 64.36 66.22H56.32C56.4 68.44 57.56 69.94 59.62 69.94C61.24 69.94 62.1 68.96 62.5 67.76H64.16C63.58 69.8 61.98 71.24 59.62 71.24C56.6 71.24 54.64 68.98 54.64 65.9ZM62.68 64.98C62.38 63.14 61.3 61.9 59.54 61.9C57.76 61.9 56.66 63.12 56.38 64.98H62.68ZM70.8566 71.24C68.0766 71.24 66.4366 69.92 66.2566 67.7H67.8766C68.0366 69.4 69.2966 70 70.8566 70C72.5366 70 73.1966 69.14 73.1966 68.18C73.1966 67.04 72.4566 66.76 70.5766 66.28C68.5966 65.78 66.6366 65.38 66.6366 63.32C66.6366 61.72 68.1766 60.56 70.5766 60.56C73.0566 60.56 74.4566 61.86 74.6966 63.64H73.0966C72.9366 62.46 72.0366 61.8 70.5766 61.8C69.1366 61.8 68.2766 62.46 68.2766 63.24C68.2766 64.28 69.3366 64.54 71.0766 64.98C73.1766 65.5 74.8366 66.04 74.8366 68.08C74.8366 70.1 73.2366 71.24 70.8566 71.24ZM86.1284 71.24C83.3484 71.24 81.7084 69.92 81.5284 67.7H83.1484C83.3084 69.4 84.5684 70 86.1284 70C87.8084 70 88.4684 69.14 88.4684 68.18C88.4684 67.04 87.7284 66.76 85.8484 66.28C83.8684 65.78 81.9084 65.38 81.9084 63.32C81.9084 61.72 83.4484 60.56 85.8484 60.56C88.3284 60.56 89.7284 61.86 89.9684 63.64H88.3684C88.2084 62.46 87.3084 61.8 85.8484 61.8C84.4084 61.8 83.5484 62.46 83.5484 63.24C83.5484 64.28 84.6084 64.54 86.3484 64.98C88.4484 65.5 90.1084 66.04 90.1084 68.08C90.1084 70.1 88.5084 71.24 86.1284 71.24ZM97.0964 62.08H94.8564V68.42C94.8564 69.42 94.9964 69.72 95.8764 69.72H97.0964V71H95.4764C93.7364 71 93.2964 70.2 93.2964 68.52V62.08H91.6964V60.8H93.2964V58.08H94.8564V60.8H97.0964V62.08ZM98.8158 65.9C98.8158 62.86 100.716 60.6 103.716 60.6C106.816 60.6 108.676 63.14 108.536 66.22H100.496C100.576 68.44 101.736 69.94 103.796 69.94C105.416 69.94 106.276 68.96 106.676 67.76H108.336C107.756 69.8 106.156 71.24 103.796 71.24C100.776 71.24 98.8158 68.98 98.8158 65.9ZM106.856 64.98C106.556 63.14 105.476 61.9 103.716 61.9C101.936 61.9 100.836 63.12 100.556 64.98H106.856ZM110.592 65.9C110.592 62.86 112.492 60.6 115.492 60.6C118.592 60.6 120.452 63.14 120.312 66.22H112.272C112.352 68.44 113.512 69.94 115.572 69.94C117.192 69.94 118.052 68.96 118.452 67.76H120.112C119.532 69.8 117.932 71.24 115.572 71.24C112.552 71.24 110.592 68.98 110.592 65.9ZM118.632 64.98C118.332 63.14 117.252 61.9 115.492 61.9C113.712 61.9 112.612 63.12 112.332 64.98H118.632ZM122.989 60.8H124.549V62.46C125.209 61.28 126.309 60.6 127.829 60.6C130.469 60.6 132.189 62.84 132.189 65.92C132.189 69 130.469 71.24 127.829 71.24C126.309 71.24 125.209 70.56 124.549 69.38V74.4H122.989V60.8ZM127.509 69.94C129.429 69.94 130.509 68.24 130.509 65.92C130.509 63.6 129.429 61.9 127.509 61.9C125.589 61.9 124.509 63.6 124.509 65.92C124.509 68.24 125.589 69.94 127.509 69.94ZM144.026 62.08H141.786V68.42C141.786 69.42 141.926 69.72 142.806 69.72H144.026V71H142.406C140.666 71 140.226 70.2 140.226 68.52V62.08H138.626V60.8H140.226V58.08H141.786V60.8H144.026V62.08ZM151.101 60.8H151.801V62.3H150.721C148.981 62.3 148.081 63 148.121 65.2V71H146.561V60.8H148.081V62.7C148.521 61.6 149.501 60.8 151.101 60.8ZM156.608 71.24C154.628 71.24 153.048 70.12 153.048 68.14C153.048 66.04 154.668 65.52 157.228 64.82C158.848 64.38 159.948 64.16 159.948 63.26C159.948 62.46 159.148 61.82 157.628 61.82C156.108 61.82 155.108 62.46 154.988 63.76H153.368C153.628 61.94 155.128 60.6 157.628 60.6C160.068 60.6 161.508 61.7 161.508 63.66V71H160.008V69.1C159.628 70.28 158.528 71.24 156.608 71.24ZM156.948 70.04C158.908 70.04 160.008 68.36 160.008 66.5V64.48C159.728 65.12 158.948 65.46 157.648 65.82C155.888 66.3 154.728 66.78 154.728 68.14C154.728 69.38 155.688 70.04 156.948 70.04ZM164.743 56.8H166.303V58.8H164.743V56.8ZM164.743 60.8H166.303V71H164.743V60.8ZM169.625 56.8H171.185V71H169.625V56.8ZM178.327 71.24C175.547 71.24 173.907 69.92 173.727 67.7H175.347C175.507 69.4 176.767 70 178.327 70C180.007 70 180.667 69.14 180.667 68.18C180.667 67.04 179.927 66.76 178.047 66.28C176.067 65.78 174.107 65.38 174.107 63.32C174.107 61.72 175.647 60.56 178.047 60.56C180.527 60.56 181.927 61.86 182.167 63.64H180.567C180.407 62.46 179.507 61.8 178.047 61.8C176.607 61.8 175.747 62.46 175.747 63.24C175.747 64.28 176.807 64.54 178.547 64.98C180.647 65.5 182.307 66.04 182.307 68.08C182.307 70.1 180.707 71.24 178.327 71.24ZM192.679 71.24C190.699 71.24 189.119 70.12 189.119 68.14C189.119 66.04 190.739 65.52 193.299 64.82C194.919 64.38 196.019 64.16 196.019 63.26C196.019 62.46 195.219 61.82 193.699 61.82C192.179 61.82 191.179 62.46 191.059 63.76H189.439C189.699 61.94 191.199 60.6 193.699 60.6C196.139 60.6 197.579 61.7 197.579 63.66V71H196.079V69.1C195.699 70.28 194.599 71.24 192.679 71.24ZM193.019 70.04C194.979 70.04 196.079 68.36 196.079 66.5V64.48C195.799 65.12 195.019 65.46 193.719 65.82C191.959 66.3 190.799 66.78 190.799 68.14C190.799 69.38 191.759 70.04 193.019 70.04ZM200.813 60.8H202.373V62.52C202.873 61.54 203.873 60.6 205.733 60.6C207.933 60.6 209.093 61.86 209.093 63.86V71H207.533V64.12C207.533 62.72 206.873 61.9 205.193 61.9C203.633 61.9 202.373 63.1 202.373 65.06V71H200.813V60.8ZM216.096 71.24C213.456 71.24 211.736 69 211.736 65.92C211.736 62.84 213.456 60.6 216.096 60.6C217.616 60.6 218.716 61.28 219.376 62.46V56.8H220.936V71H219.376V69.38C218.716 70.56 217.616 71.24 216.096 71.24ZM216.416 69.94C218.336 69.94 219.416 68.24 219.416 65.92C219.416 63.6 218.336 61.9 216.416 61.9C214.496 61.9 213.416 63.6 213.416 65.92C213.416 68.24 214.496 69.94 216.416 69.94ZM231.953 71.24C229.973 71.24 228.393 70.12 228.393 68.14C228.393 66.04 230.013 65.52 232.573 64.82C234.193 64.38 235.293 64.16 235.293 63.26C235.293 62.46 234.493 61.82 232.973 61.82C231.453 61.82 230.453 62.46 230.333 63.76H228.713C228.973 61.94 230.473 60.6 232.973 60.6C235.413 60.6 236.853 61.7 236.853 63.66V71H235.353V69.1C234.973 70.28 233.873 71.24 231.953 71.24ZM232.293 70.04C234.253 70.04 235.353 68.36 235.353 66.5V64.48C235.073 65.12 234.293 65.46 232.993 65.82C231.233 66.3 230.073 66.78 230.073 68.14C230.073 69.38 231.033 70.04 232.293 70.04ZM240.087 56.8H241.647V71H240.087V56.8ZM244.969 60.8H246.529V62.46C247.189 61.28 248.289 60.6 249.809 60.6C252.449 60.6 254.169 62.84 254.169 65.92C254.169 69 252.449 71.24 249.809 71.24C248.289 71.24 247.189 70.56 246.529 69.38V74.4H244.969V60.8ZM249.489 69.94C251.409 69.94 252.489 68.24 252.489 65.92C252.489 63.6 251.409 61.9 249.489 61.9C247.569 61.9 246.489 63.6 246.489 65.92C246.489 68.24 247.569 69.94 249.489 69.94ZM256.883 56.8H258.443V58.8H256.883V56.8ZM256.883 60.8H258.443V71H256.883V60.8ZM261.765 60.8H263.325V62.52C263.825 61.54 264.825 60.6 266.685 60.6C268.885 60.6 270.045 61.86 270.045 63.86V71H268.485V64.12C268.485 62.72 267.825 61.9 266.145 61.9C264.585 61.9 263.325 63.1 263.325 65.06V71H261.765V60.8ZM272.667 65.9C272.667 62.86 274.567 60.6 277.567 60.6C280.667 60.6 282.527 63.14 282.387 66.22H274.347C274.427 68.44 275.587 69.94 277.647 69.94C279.267 69.94 280.127 68.96 280.527 67.76H282.187C281.607 69.8 280.007 71.24 277.647 71.24C274.627 71.24 272.667 68.98 272.667 65.9ZM280.707 64.98C280.407 63.14 279.327 61.9 277.567 61.9C275.787 61.9 274.687 63.12 274.407 64.98H280.707ZM298.608 67.66C298.088 69.92 296.508 71.24 294.168 71.24C291.208 71.24 289.248 68.98 289.248 65.9C289.248 62.86 291.188 60.6 294.148 60.6C296.508 60.6 298.088 61.94 298.608 64.18H296.948C296.588 62.7 295.648 61.9 294.148 61.9C292.108 61.9 290.928 63.58 290.928 65.9C290.928 68.24 292.128 69.94 294.168 69.94C295.748 69.94 296.588 69.04 296.948 67.66H298.608ZM305.436 71.24C302.476 71.24 300.556 68.98 300.556 65.9C300.556 62.86 302.476 60.6 305.436 60.6C308.396 60.6 310.316 62.86 310.316 65.9C310.316 68.98 308.396 71.24 305.436 71.24ZM305.436 69.94C307.456 69.94 308.636 68.24 308.636 65.9C308.636 63.58 307.456 61.9 305.436 61.9C303.416 61.9 302.236 63.58 302.236 65.9C302.236 68.24 303.416 69.94 305.436 69.94ZM313.011 60.8H314.571V62.52C315.071 61.54 316.071 60.6 317.931 60.6C320.131 60.6 321.291 61.86 321.291 63.86V71H319.731V64.12C319.731 62.72 319.071 61.9 317.391 61.9C315.831 61.9 314.571 63.1 314.571 65.06V71H313.011V60.8ZM328.293 71.24C325.653 71.24 323.933 69 323.933 65.92C323.933 62.84 325.653 60.6 328.293 60.6C329.813 60.6 330.913 61.28 331.573 62.46V56.8H333.133V71H331.573V69.38C330.913 70.56 329.813 71.24 328.293 71.24ZM328.613 69.94C330.533 69.94 331.613 68.24 331.613 65.92C331.613 63.6 330.533 61.9 328.613 61.9C326.693 61.9 325.613 63.6 325.613 65.92C325.613 68.24 326.693 69.94 328.613 69.94ZM336.447 56.8H338.007V58.8H336.447V56.8ZM336.447 60.8H338.007V71H336.447V60.8ZM345.649 62.08H343.409V68.42C343.409 69.42 343.549 69.72 344.429 69.72H345.649V71H344.029C342.289 71 341.849 70.2 341.849 68.52V62.08H340.249V60.8H341.849V58.08H343.409V60.8H345.649V62.08ZM348.183 56.8H349.743V58.8H348.183V56.8ZM348.183 60.8H349.743V71H348.183V60.8ZM357.325 71.24C354.365 71.24 352.445 68.98 352.445 65.9C352.445 62.86 354.365 60.6 357.325 60.6C360.285 60.6 362.205 62.86 362.205 65.9C362.205 68.98 360.285 71.24 357.325 71.24ZM357.325 69.94C359.345 69.94 360.525 68.24 360.525 65.9C360.525 63.58 359.345 61.9 357.325 61.9C355.305 61.9 354.125 63.58 354.125 65.9C354.125 68.24 355.305 69.94 357.325 69.94ZM364.901 60.8H366.461V62.52C366.961 61.54 367.961 60.6 369.821 60.6C372.021 60.6 373.181 61.86 373.181 63.86V71H371.621V64.12C371.621 62.72 370.961 61.9 369.281 61.9C367.721 61.9 366.461 63.1 366.461 65.06V71H364.901V60.8ZM380.243 71.24C377.463 71.24 375.823 69.92 375.643 67.7H377.263C377.423 69.4 378.683 70 380.243 70C381.923 70 382.583 69.14 382.583 68.18C382.583 67.04 381.843 66.76 379.963 66.28C377.983 65.78 376.023 65.38 376.023 63.32C376.023 61.72 377.563 60.56 379.963 60.56C382.443 60.56 383.843 61.86 384.083 63.64H382.483C382.323 62.46 381.423 61.8 379.963 61.8C378.523 61.8 377.663 62.46 377.663 63.24C377.663 64.28 378.723 64.54 380.463 64.98C382.563 65.5 384.223 66.04 384.223 68.08C384.223 70.1 382.623 71.24 380.243 71.24ZM388.731 69V71H386.731V69H388.731ZM3.28 121.46H11.52V123H1.52V108.8H11.42V110.34H3.28V114.86H10.62V116.36H3.28V121.46ZM14.2084 112.8H15.7684V114.52C16.2684 113.54 17.2684 112.6 19.1284 112.6C21.3284 112.6 22.4884 113.86 22.4884 115.86V123H20.9284V116.12C20.9284 114.72 20.2684 113.9 18.5884 113.9C17.0284 113.9 15.7684 115.1 15.7684 117.06V123H14.2084V112.8ZM25.7311 108.8H27.2911V114.52C27.7911 113.54 28.7911 112.6 30.6511 112.6C32.8511 112.6 34.0111 113.86 34.0111 115.86V123H32.4511V116.12C32.4511 114.72 31.7911 113.9 30.1111 113.9C28.5511 113.9 27.2911 115.1 27.2911 117.06V123H25.7311V108.8ZM40.1538 123.24C38.1738 123.24 36.5938 122.12 36.5938 120.14C36.5938 118.04 38.2138 117.52 40.7738 116.82C42.3938 116.38 43.4938 116.16 43.4938 115.26C43.4938 114.46 42.6938 113.82 41.1738 113.82C39.6538 113.82 38.6538 114.46 38.5338 115.76H36.9138C37.1738 113.94 38.6738 112.6 41.1738 112.6C43.6138 112.6 45.0538 113.7 45.0538 115.66V123H43.5538V121.1C43.1738 122.28 42.0738 123.24 40.1538 123.24ZM40.4938 122.04C42.4538 122.04 43.5538 120.36 43.5538 118.5V116.48C43.2738 117.12 42.4938 117.46 41.1938 117.82C39.4338 118.3 38.2738 118.78 38.2738 120.14C38.2738 121.38 39.2338 122.04 40.4938 122.04ZM48.2881 112.8H49.8481V114.52C50.3481 113.54 51.3481 112.6 53.2081 112.6C55.4081 112.6 56.5681 113.86 56.5681 115.86V123H55.0081V116.12C55.0081 114.72 54.3481 113.9 52.6681 113.9C51.1081 113.9 49.8481 115.1 49.8481 117.06V123H48.2881V112.8ZM68.5508 119.66C68.0308 121.92 66.4508 123.24 64.1108 123.24C61.1508 123.24 59.1908 120.98 59.1908 117.9C59.1908 114.86 61.1308 112.6 64.0908 112.6C66.4508 112.6 68.0308 113.94 68.5508 116.18H66.8908C66.5308 114.7 65.5908 113.9 64.0908 113.9C62.0508 113.9 60.8708 115.58 60.8708 117.9C60.8708 120.24 62.0708 121.94 64.1108 121.94C65.6908 121.94 66.5308 121.04 66.8908 119.66H68.5508ZM70.4986 117.9C70.4986 114.86 72.3986 112.6 75.3986 112.6C78.4986 112.6 80.3586 115.14 80.2186 118.22H72.1786C72.2586 120.44 73.4186 121.94 75.4786 121.94C77.0986 121.94 77.9586 120.96 78.3586 119.76H80.0186C79.4386 121.8 77.8386 123.24 75.4786 123.24C72.4586 123.24 70.4986 120.98 70.4986 117.9ZM78.5386 116.98C78.2386 115.14 77.1586 113.9 75.3986 113.9C73.6186 113.9 72.5186 115.12 72.2386 116.98H78.5386ZM86.7152 123.24C83.9352 123.24 82.2952 121.92 82.1152 119.7H83.7352C83.8952 121.4 85.1552 122 86.7152 122C88.3952 122 89.0552 121.14 89.0552 120.18C89.0552 119.04 88.3152 118.76 86.4352 118.28C84.4552 117.78 82.4952 117.38 82.4952 115.32C82.4952 113.72 84.0352 112.56 86.4352 112.56C88.9152 112.56 90.3152 113.86 90.5552 115.64H88.9552C88.7952 114.46 87.8952 113.8 86.4352 113.8C84.9952 113.8 84.1352 114.46 84.1352 115.24C84.1352 116.28 85.1952 116.54 86.9352 116.98C89.0352 117.5 90.6952 118.04 90.6952 120.08C90.6952 122.1 89.0952 123.24 86.7152 123.24ZM101.987 123.24C99.207 123.24 97.567 121.92 97.387 119.7H99.007C99.167 121.4 100.427 122 101.987 122C103.667 122 104.327 121.14 104.327 120.18C104.327 119.04 103.587 118.76 101.707 118.28C99.727 117.78 97.767 117.38 97.767 115.32C97.767 113.72 99.307 112.56 101.707 112.56C104.187 112.56 105.587 113.86 105.827 115.64H104.227C104.067 114.46 103.167 113.8 101.707 113.8C100.267 113.8 99.407 114.46 99.407 115.24C99.407 116.28 100.467 116.54 102.207 116.98C104.307 117.5 105.967 118.04 105.967 120.08C105.967 122.1 104.367 123.24 101.987 123.24ZM112.955 114.08H110.715V120.42C110.715 121.42 110.855 121.72 111.735 121.72H112.955V123H111.335C109.595 123 109.155 122.2 109.155 120.52V114.08H107.555V112.8H109.155V110.08H110.715V112.8H112.955V114.08ZM118.292 123.24C116.312 123.24 114.732 122.12 114.732 120.14C114.732 118.04 116.352 117.52 118.912 116.82C120.532 116.38 121.632 116.16 121.632 115.26C121.632 114.46 120.832 113.82 119.312 113.82C117.792 113.82 116.792 114.46 116.672 115.76H115.052C115.312 113.94 116.812 112.6 119.312 112.6C121.752 112.6 123.192 113.7 123.192 115.66V123H121.692V121.1C121.312 122.28 120.212 123.24 118.292 123.24ZM118.632 122.04C120.592 122.04 121.692 120.36 121.692 118.5V116.48C121.412 117.12 120.632 117.46 119.332 117.82C117.572 118.3 116.412 118.78 116.412 120.14C116.412 121.38 117.372 122.04 118.632 122.04ZM131.266 123.24C129.746 123.24 128.646 122.56 127.986 121.38V123H126.426V108.8H127.986V114.46C128.646 113.28 129.746 112.6 131.266 112.6C133.906 112.6 135.626 114.84 135.626 117.92C135.626 121 133.906 123.24 131.266 123.24ZM130.946 121.94C132.866 121.94 133.946 120.24 133.946 117.92C133.946 115.6 132.866 113.9 130.946 113.9C129.026 113.9 127.946 115.6 127.946 117.92C127.946 120.24 129.026 121.94 130.946 121.94ZM138.34 108.8H139.9V110.8H138.34V108.8ZM138.34 112.8H139.9V123H138.34V112.8ZM143.222 108.8H144.782V123H143.222V108.8ZM148.104 108.8H149.664V110.8H148.104V108.8ZM148.104 112.8H149.664V123H148.104V112.8ZM157.306 114.08H155.066V120.42C155.066 121.42 155.206 121.72 156.086 121.72H157.306V123H155.686C153.946 123 153.506 122.2 153.506 120.52V114.08H151.906V112.8H153.506V110.08H155.066V112.8H157.306V114.08ZM160.4 112.8L163.32 121.12L166.32 112.8H167.94L163.86 123.54C163.04 125.7 162.48 126.4 160.74 126.4H159.6V125.1H160.4C161.52 125.1 161.88 124.88 162.56 123L158.7 112.8H160.4ZM177.687 110.08C176.867 110.08 176.667 110.42 176.667 111.38V112.8H178.907V114.08H176.667V123H175.107V114.08H173.507V112.8H175.107V111.28C175.107 109.6 175.647 108.8 177.287 108.8H178.907V110.08H177.687ZM185.036 123.24C182.076 123.24 180.156 120.98 180.156 117.9C180.156 114.86 182.076 112.6 185.036 112.6C187.996 112.6 189.916 114.86 189.916 117.9C189.916 120.98 187.996 123.24 185.036 123.24ZM185.036 121.94C187.056 121.94 188.236 120.24 188.236 117.9C188.236 115.58 187.056 113.9 185.036 113.9C183.016 113.9 181.836 115.58 181.836 117.9C181.836 120.24 183.016 121.94 185.036 121.94ZM197.151 112.8H197.851V114.3H196.771C195.031 114.3 194.131 115 194.171 117.2V123H192.611V112.8H194.131V114.7C194.571 113.6 195.551 112.8 197.151 112.8ZM208.226 123.24C205.446 123.24 203.806 121.92 203.626 119.7H205.246C205.406 121.4 206.666 122 208.226 122C209.906 122 210.566 121.14 210.566 120.18C210.566 119.04 209.826 118.76 207.946 118.28C205.966 117.78 204.006 117.38 204.006 115.32C204.006 113.72 205.546 112.56 207.946 112.56C210.426 112.56 211.826 113.86 212.066 115.64H210.466C210.306 114.46 209.406 113.8 207.946 113.8C206.506 113.8 205.646 114.46 205.646 115.24C205.646 116.28 206.706 116.54 208.446 116.98C210.546 117.5 212.206 118.04 212.206 120.08C212.206 122.1 210.606 123.24 208.226 123.24ZM214.254 117.9C214.254 114.86 216.154 112.6 219.154 112.6C222.254 112.6 224.114 115.14 223.974 118.22H215.934C216.014 120.44 217.174 121.94 219.234 121.94C220.854 121.94 221.714 120.96 222.114 119.76H223.774C223.194 121.8 221.594 123.24 219.234 123.24C216.214 123.24 214.254 120.98 214.254 117.9ZM222.294 116.98C221.994 115.14 220.914 113.9 219.154 113.9C217.374 113.9 216.274 115.12 215.994 116.98H222.294ZM231.191 112.8H231.891V114.3H230.811C229.071 114.3 228.171 115 228.211 117.2V123H226.651V112.8H228.171V114.7C228.611 113.6 229.591 112.8 231.191 112.8ZM234.13 108.8H235.69V110.8H234.13V108.8ZM234.13 112.8H235.69V123H234.13V112.8ZM243.272 123.24C240.312 123.24 238.392 120.98 238.392 117.9C238.392 114.86 240.312 112.6 243.272 112.6C246.232 112.6 248.152 114.86 248.152 117.9C248.152 120.98 246.232 123.24 243.272 123.24ZM243.272 121.94C245.292 121.94 246.472 120.24 246.472 117.9C246.472 115.58 245.292 113.9 243.272 113.9C241.252 113.9 240.072 115.58 240.072 117.9C240.072 120.24 241.252 121.94 243.272 121.94ZM254.087 123.24C252.007 123.24 250.767 121.94 250.767 119.94V112.8H252.327V119.68C252.327 121.08 253.007 121.9 254.567 121.9C256.067 121.9 257.327 120.7 257.327 118.74V112.8H258.887V123H257.327V121.28C256.867 122.32 255.907 123.24 254.087 123.24ZM266.034 123.24C263.254 123.24 261.614 121.92 261.434 119.7H263.054C263.214 121.4 264.474 122 266.034 122C267.714 122 268.374 121.14 268.374 120.18C268.374 119.04 267.634 118.76 265.754 118.28C263.774 117.78 261.814 117.38 261.814 115.32C261.814 113.72 263.354 112.56 265.754 112.56C268.234 112.56 269.634 113.86 269.874 115.64H268.274C268.114 114.46 267.214 113.8 265.754 113.8C264.314 113.8 263.454 114.46 263.454 115.24C263.454 116.28 264.514 116.54 266.254 116.98C268.354 117.5 270.014 118.04 270.014 120.08C270.014 122.1 268.414 123.24 266.034 123.24ZM280.386 123.24C278.406 123.24 276.826 122.12 276.826 120.14C276.826 118.04 278.446 117.52 281.006 116.82C282.626 116.38 283.726 116.16 283.726 115.26C283.726 114.46 282.926 113.82 281.406 113.82C279.886 113.82 278.886 114.46 278.766 115.76H277.146C277.406 113.94 278.906 112.6 281.406 112.6C283.846 112.6 285.286 113.7 285.286 115.66V123H283.786V121.1C283.406 122.28 282.306 123.24 280.386 123.24ZM280.726 122.04C282.686 122.04 283.786 120.36 283.786 118.5V116.48C283.506 117.12 282.726 117.46 281.426 117.82C279.666 118.3 278.506 118.78 278.506 120.14C278.506 121.38 279.466 122.04 280.726 122.04ZM292.28 123.24C289.64 123.24 287.92 121 287.92 117.92C287.92 114.84 289.64 112.6 292.28 112.6C293.8 112.6 294.9 113.28 295.56 114.46V108.8H297.12V123H295.56V121.38C294.9 122.56 293.8 123.24 292.28 123.24ZM292.6 121.94C294.52 121.94 295.6 120.24 295.6 117.92C295.6 115.6 294.52 113.9 292.6 113.9C290.68 113.9 289.6 115.6 289.6 117.92C289.6 120.24 290.68 121.94 292.6 121.94ZM306.773 112.8H308.413L304.753 123H302.973L299.333 112.8H301.053L303.913 121.4L306.773 112.8ZM309.774 117.9C309.774 114.86 311.674 112.6 314.674 112.6C317.774 112.6 319.634 115.14 319.494 118.22H311.454C311.534 120.44 312.694 121.94 314.754 121.94C316.374 121.94 317.234 120.96 317.634 119.76H319.294C318.714 121.8 317.114 123.24 314.754 123.24C311.734 123.24 309.774 120.98 309.774 117.9ZM317.814 116.98C317.514 115.14 316.434 113.9 314.674 113.9C312.894 113.9 311.794 115.12 311.514 116.98H317.814ZM322.17 112.8H323.73V114.52C324.23 113.54 325.23 112.6 327.09 112.6C329.29 112.6 330.45 113.86 330.45 115.86V123H328.89V116.12C328.89 114.72 328.23 113.9 326.55 113.9C324.99 113.9 323.73 115.1 323.73 117.06V123H322.17V112.8ZM337.935 114.08H335.695V120.42C335.695 121.42 335.835 121.72 336.715 121.72H337.935V123H336.315C334.575 123 334.135 122.2 334.135 120.52V114.08H332.535V112.8H334.135V110.08H335.695V112.8H337.935V114.08ZM343.709 123.24C341.629 123.24 340.389 121.94 340.389 119.94V112.8H341.949V119.68C341.949 121.08 342.629 121.9 344.189 121.9C345.689 121.9 346.949 120.7 346.949 118.74V112.8H348.509V123H346.949V121.28C346.489 122.32 345.529 123.24 343.709 123.24ZM356.376 112.8H357.076V114.3H355.996C354.256 114.3 353.356 115 353.396 117.2V123H351.836V112.8H353.356V114.7C353.796 113.6 354.776 112.8 356.376 112.8ZM358.305 117.9C358.305 114.86 360.205 112.6 363.205 112.6C366.305 112.6 368.165 115.14 368.025 118.22H359.985C360.065 120.44 361.225 121.94 363.285 121.94C364.905 121.94 365.765 120.96 366.165 119.76H367.825C367.245 121.8 365.645 123.24 363.285 123.24C360.265 123.24 358.305 120.98 358.305 117.9ZM366.345 116.98C366.045 115.14 364.965 113.9 363.205 113.9C361.425 113.9 360.325 115.12 360.045 116.98H366.345ZM375.241 112.8H375.941V114.3H374.861C373.121 114.3 372.221 115 372.261 117.2V123H370.701V112.8H372.221V114.7C372.661 113.6 373.641 112.8 375.241 112.8ZM381.786 123.24C379.006 123.24 377.366 121.92 377.186 119.7H378.806C378.966 121.4 380.226 122 381.786 122C383.466 122 384.126 121.14 384.126 120.18C384.126 119.04 383.386 118.76 381.506 118.28C379.526 117.78 377.566 117.38 377.566 115.32C377.566 113.72 379.106 112.56 381.506 112.56C383.986 112.56 385.386 113.86 385.626 115.64H384.026C383.866 114.46 382.966 113.8 381.506 113.8C380.066 113.8 379.206 114.46 379.206 115.24C379.206 116.28 380.266 116.54 382.006 116.98C384.106 117.5 385.766 118.04 385.766 120.08C385.766 122.1 384.166 123.24 381.786 123.24ZM390.274 121V123H388.274V121H390.274ZM7.54 175.24C3.4 175.24 0.8 172.1 0.8 167.9C0.8 163.7 3.4 160.56 7.54 160.56C11.68 160.56 14.28 163.7 14.28 167.9C14.28 172.1 11.68 175.24 7.54 175.24ZM7.54 173.7C10.74 173.7 12.52 171.18 12.52 167.9C12.52 164.62 10.74 162.1 7.54 162.1C4.34 162.1 2.56 164.62 2.56 167.9C2.56 171.18 4.34 173.7 7.54 173.7ZM20.3781 175.24C18.2981 175.24 17.0581 173.94 17.0581 171.94V164.8H18.6181V171.68C18.6181 173.08 19.2981 173.9 20.8581 173.9C22.3581 173.9 23.6181 172.7 23.6181 170.74V164.8H25.1781V175H23.6181V173.28C23.1581 174.32 22.1981 175.24 20.3781 175.24ZM32.8245 166.08H30.5845V172.42C30.5845 173.42 30.7245 173.72 31.6045 173.72H32.8245V175H31.2045C29.4645 175 29.0245 174.2 29.0245 172.52V166.08H27.4245V164.8H29.0245V162.08H30.5845V164.8H32.8245V166.08ZM35.3592 164.8H36.9192V166.46C37.5792 165.28 38.6792 164.6 40.1992 164.6C42.8392 164.6 44.5592 166.84 44.5592 169.92C44.5592 173 42.8392 175.24 40.1992 175.24C38.6792 175.24 37.5792 174.56 36.9192 173.38V178.4H35.3592V164.8ZM39.8792 173.94C41.7992 173.94 42.8792 172.24 42.8792 169.92C42.8792 167.6 41.7992 165.9 39.8792 165.9C37.9592 165.9 36.8792 167.6 36.8792 169.92C36.8792 172.24 37.9592 173.94 39.8792 173.94ZM46.6525 169.9C46.6525 166.86 48.5525 164.6 51.5525 164.6C54.6525 164.6 56.5125 167.14 56.3725 170.22H48.3325C48.4125 172.44 49.5725 173.94 51.6325 173.94C53.2525 173.94 54.1125 172.96 54.5125 171.76H56.1725C55.5925 173.8 53.9925 175.24 51.6325 175.24C48.6125 175.24 46.6525 172.98 46.6525 169.9ZM54.6925 168.98C54.3925 167.14 53.3125 165.9 51.5525 165.9C49.7725 165.9 48.6725 167.12 48.3925 168.98H54.6925ZM63.5891 164.8H64.2891V166.3H63.2091C61.4691 166.3 60.5691 167 60.6091 169.2V175H59.0491V164.8H60.5691V166.7C61.0091 165.6 61.9891 164.8 63.5891 164.8ZM69.7869 162.08C68.9669 162.08 68.7669 162.42 68.7669 163.38V164.8H71.0069V166.08H68.7669V175H67.2069V166.08H65.6069V164.8H67.2069V163.28C67.2069 161.6 67.7469 160.8 69.3869 160.8H71.0069V162.08H69.7869ZM77.1356 175.24C74.1756 175.24 72.2556 172.98 72.2556 169.9C72.2556 166.86 74.1756 164.6 77.1356 164.6C80.0956 164.6 82.0156 166.86 82.0156 169.9C82.0156 172.98 80.0956 175.24 77.1356 175.24ZM77.1356 173.94C79.1556 173.94 80.3356 172.24 80.3356 169.9C80.3356 167.58 79.1556 165.9 77.1356 165.9C75.1156 165.9 73.9356 167.58 73.9356 169.9C73.9356 172.24 75.1156 173.94 77.1356 173.94ZM89.2508 164.8H89.9508V166.3H88.8708C87.1308 166.3 86.2308 167 86.2708 169.2V175H84.7108V164.8H86.2308V166.7C86.6708 165.6 87.6508 164.8 89.2508 164.8ZM92.1905 164.8H93.7505V166.48C94.3705 165.36 95.3905 164.6 96.9905 164.6C98.4305 164.6 99.4705 165.34 99.8305 166.7C100.41 165.44 101.57 164.6 103.21 164.6C104.89 164.6 106.21 165.6 106.21 167.62V175H104.65V168.1C104.65 166.62 103.93 165.9 102.55 165.9C101.11 165.9 99.9905 167.14 99.9905 169.04V175H98.4305V168.1C98.4305 166.62 97.7105 165.9 96.3305 165.9C94.8905 165.9 93.7505 167.14 93.7505 169.04V175H92.1905V164.8ZM113.275 175.24C110.495 175.24 108.855 173.92 108.675 171.7H110.295C110.455 173.4 111.715 174 113.275 174C114.955 174 115.615 173.14 115.615 172.18C115.615 171.04 114.875 170.76 112.995 170.28C111.015 169.78 109.055 169.38 109.055 167.32C109.055 165.72 110.595 164.56 112.995 164.56C115.475 164.56 116.875 165.86 117.115 167.64H115.515C115.355 166.46 114.455 165.8 112.995 165.8C111.555 165.8 110.695 166.46 110.695 167.24C110.695 168.28 111.755 168.54 113.495 168.98C115.595 169.5 117.255 170.04 117.255 172.08C117.255 174.1 115.655 175.24 113.275 175.24ZM126.687 173.44H134.387V175H124.987V160.8H126.687V173.44ZM135.591 169.9C135.591 166.86 137.491 164.6 140.491 164.6C143.591 164.6 145.451 167.14 145.311 170.22H137.271C137.351 172.44 138.511 173.94 140.571 173.94C142.191 173.94 143.051 172.96 143.451 171.76H145.111C144.531 173.8 142.931 175.24 140.571 175.24C137.551 175.24 135.591 172.98 135.591 169.9ZM143.631 168.98C143.331 167.14 142.251 165.9 140.491 165.9C138.711 165.9 137.611 167.12 137.331 168.98H143.631ZM154.887 175L151.107 169.46L149.547 170.88V175H147.987V160.8H149.547V169.12L154.247 164.8H156.147L152.187 168.44L156.647 175H154.887ZM158.455 160.8H160.015V162.8H158.455V160.8ZM158.455 164.8H160.015V175H158.455V164.8ZM171.041 175.24C169.061 175.24 167.481 174.12 167.481 172.14C167.481 170.04 169.101 169.52 171.661 168.82C173.281 168.38 174.381 168.16 174.381 167.26C174.381 166.46 173.581 165.82 172.061 165.82C170.541 165.82 169.541 166.46 169.421 167.76H167.801C168.061 165.94 169.561 164.6 172.061 164.6C174.501 164.6 175.941 165.7 175.941 167.66V175H174.441V173.1C174.061 174.28 172.961 175.24 171.041 175.24ZM171.381 174.04C173.341 174.04 174.441 172.36 174.441 170.5V168.48C174.161 169.12 173.381 169.46 172.081 169.82C170.321 170.3 169.161 170.78 169.161 172.14C169.161 173.38 170.121 174.04 171.381 174.04ZM179.176 164.8H180.736V166.52C181.236 165.54 182.236 164.6 184.096 164.6C186.296 164.6 187.456 165.86 187.456 167.86V175H185.896V168.12C185.896 166.72 185.236 165.9 183.556 165.9C181.996 165.9 180.736 167.1 180.736 169.06V175H179.176V164.8ZM194.458 175.24C191.818 175.24 190.098 173 190.098 169.92C190.098 166.84 191.818 164.6 194.458 164.6C195.978 164.6 197.078 165.28 197.738 166.46V160.8H199.298V175H197.738V173.38C197.078 174.56 195.978 175.24 194.458 175.24ZM194.778 173.94C196.698 173.94 197.778 172.24 197.778 169.92C197.778 167.6 196.698 165.9 194.778 165.9C192.858 165.9 191.778 167.6 191.778 169.92C191.778 172.24 192.858 173.94 194.778 173.94ZM216.895 160.8H218.595V175H216.895V168.36H209.375V175H207.675V160.8H209.375V166.86H216.895V160.8ZM224.963 175.24C222.983 175.24 221.403 174.12 221.403 172.14C221.403 170.04 223.023 169.52 225.583 168.82C227.203 168.38 228.303 168.16 228.303 167.26C228.303 166.46 227.503 165.82 225.983 165.82C224.463 165.82 223.463 166.46 223.343 167.76H221.723C221.983 165.94 223.483 164.6 225.983 164.6C228.423 164.6 229.863 165.7 229.863 167.66V175H228.363V173.1C227.983 174.28 226.883 175.24 224.963 175.24ZM225.303 174.04C227.263 174.04 228.363 172.36 228.363 170.5V168.48C228.083 169.12 227.303 169.46 226.003 169.82C224.243 170.3 223.083 170.78 223.083 172.14C223.083 173.38 224.043 174.04 225.303 174.04ZM237.637 164.8H238.337V166.3H237.257C235.517 166.3 234.617 167 234.657 169.2V175H233.097V164.8H234.617V166.7C235.057 165.6 236.037 164.8 237.637 164.8ZM245.117 164.8H245.817V166.3H244.737C242.997 166.3 242.097 167 242.137 169.2V175H240.577V164.8H242.097V166.7C242.537 165.6 243.517 164.8 245.117 164.8ZM248.057 160.8H249.617V162.8H248.057V160.8ZM248.057 164.8H249.617V175H248.057V164.8ZM252.319 169.9C252.319 166.86 254.219 164.6 257.219 164.6C260.319 164.6 262.179 167.14 262.039 170.22H253.999C254.079 172.44 255.239 173.94 257.299 173.94C258.919 173.94 259.779 172.96 260.179 171.76H261.839C261.259 173.8 259.659 175.24 257.299 175.24C254.279 175.24 252.319 172.98 252.319 169.9ZM260.359 168.98C260.059 167.14 258.979 165.9 257.219 165.9C255.439 165.9 254.339 167.12 254.059 168.98H260.359ZM269.255 164.8H269.955V166.3H268.875C267.135 166.3 266.235 167 266.275 169.2V175H264.715V164.8H266.235V166.7C266.675 165.6 267.655 164.8 269.255 164.8ZM276.511 164.8H278.071V166.46C278.731 165.28 279.831 164.6 281.351 164.6C283.991 164.6 285.711 166.84 285.711 169.92C285.711 173 283.991 175.24 281.351 175.24C279.831 175.24 278.731 174.56 278.071 173.38V178.4H276.511V164.8ZM281.031 173.94C282.951 173.94 284.031 172.24 284.031 169.92C284.031 167.6 282.951 165.9 281.031 165.9C279.111 165.9 278.031 167.6 278.031 169.92C278.031 172.24 279.111 173.94 281.031 173.94ZM292.684 175.24C289.724 175.24 287.804 172.98 287.804 169.9C287.804 166.86 289.724 164.6 292.684 164.6C295.644 164.6 297.564 166.86 297.564 169.9C297.564 172.98 295.644 175.24 292.684 175.24ZM292.684 173.94C294.704 173.94 295.884 172.24 295.884 169.9C295.884 167.58 294.704 165.9 292.684 165.9C290.664 165.9 289.484 167.58 289.484 169.9C289.484 172.24 290.664 173.94 292.684 173.94ZM300.259 160.8H301.819V175H300.259V160.8ZM304.521 169.9C304.521 166.86 306.421 164.6 309.421 164.6C312.521 164.6 314.381 167.14 314.241 170.22H306.201C306.281 172.44 307.441 173.94 309.501 173.94C311.121 173.94 311.981 172.96 312.381 171.76H314.041C313.461 173.8 311.861 175.24 309.501 175.24C306.481 175.24 304.521 172.98 304.521 169.9ZM312.561 168.98C312.261 167.14 311.181 165.9 309.421 165.9C307.641 165.9 306.541 167.12 306.261 168.98H312.561ZM320.738 175.24C317.958 175.24 316.318 173.92 316.138 171.7H317.758C317.918 173.4 319.178 174 320.738 174C322.418 174 323.078 173.14 323.078 172.18C323.078 171.04 322.338 170.76 320.458 170.28C318.478 169.78 316.518 169.38 316.518 167.32C316.518 165.72 318.058 164.56 320.458 164.56C322.938 164.56 324.338 165.86 324.578 167.64H322.978C322.818 166.46 321.918 165.8 320.458 165.8C319.018 165.8 318.158 166.46 318.158 167.24C318.158 168.28 319.218 168.54 320.958 168.98C323.058 169.5 324.718 170.04 324.718 172.08C324.718 174.1 323.118 175.24 320.738 175.24ZM332.19 160.8H333.75V162.8H332.19V160.8ZM332.19 164.8H333.75V175H332.19V164.8ZM337.072 164.8H338.632V166.52C339.132 165.54 340.132 164.6 341.992 164.6C344.192 164.6 345.352 165.86 345.352 167.86V175H343.792V168.12C343.792 166.72 343.132 165.9 341.452 165.9C339.892 165.9 338.632 167.1 338.632 169.06V175H337.072V164.8ZM357.158 175.24C354.518 175.24 352.798 173 352.798 169.92C352.798 166.84 354.518 164.6 357.158 164.6C358.678 164.6 359.778 165.28 360.438 166.46V160.8H361.998V175H360.438V173.38C359.778 174.56 358.678 175.24 357.158 175.24ZM357.478 173.94C359.398 173.94 360.478 172.24 360.478 169.92C360.478 167.6 359.398 165.9 357.478 165.9C355.558 165.9 354.478 167.6 354.478 169.92C354.478 172.24 355.558 173.94 357.478 173.94ZM368.552 175.24C366.472 175.24 365.232 173.94 365.232 171.94V164.8H366.792V171.68C366.792 173.08 367.472 173.9 369.032 173.9C370.532 173.9 371.792 172.7 371.792 170.74V164.8H373.352V175H371.792V173.28C371.332 174.32 370.372 175.24 368.552 175.24ZM381.218 164.8H381.918V166.3H380.838C379.098 166.3 378.198 167 378.238 169.2V175H376.678V164.8H378.198V166.7C378.638 165.6 379.618 164.8 381.218 164.8ZM386.726 175.24C384.746 175.24 383.166 174.12 383.166 172.14C383.166 170.04 384.786 169.52 387.346 168.82C388.966 168.38 390.066 168.16 390.066 167.26C390.066 166.46 389.266 165.82 387.746 165.82C386.226 165.82 385.226 166.46 385.106 167.76H383.486C383.746 165.94 385.246 164.6 387.746 164.6C390.186 164.6 391.626 165.7 391.626 167.66V175H390.126V173.1C389.746 174.28 388.646 175.24 386.726 175.24ZM387.066 174.04C389.026 174.04 390.126 172.36 390.126 170.5V168.48C389.846 169.12 389.066 169.46 387.766 169.82C386.006 170.3 384.846 170.78 384.846 172.14C384.846 173.38 385.806 174.04 387.066 174.04ZM399.7 175.24C398.18 175.24 397.08 174.56 396.42 173.38V175H394.86V160.8H396.42V166.46C397.08 165.28 398.18 164.6 399.7 164.6C402.34 164.6 404.06 166.84 404.06 169.92C404.06 173 402.34 175.24 399.7 175.24ZM399.38 173.94C401.3 173.94 402.38 172.24 402.38 169.92C402.38 167.6 401.3 165.9 399.38 165.9C397.46 165.9 396.38 167.6 396.38 169.92C396.38 172.24 397.46 173.94 399.38 173.94ZM406.773 160.8H408.333V162.8H406.773V160.8ZM406.773 164.8H408.333V175H406.773V164.8ZM411.655 160.8H413.215V175H411.655V160.8ZM416.537 160.8H418.097V162.8H416.537V160.8ZM416.537 164.8H418.097V175H416.537V164.8ZM425.739 166.08H423.499V172.42C423.499 173.42 423.639 173.72 424.519 173.72H425.739V175H424.119C422.379 175 421.939 174.2 421.939 172.52V166.08H420.339V164.8H421.939V162.08H423.499V164.8H425.739V166.08ZM428.834 164.8L431.754 173.12L434.754 164.8H436.374L432.294 175.54C431.474 177.7 430.914 178.4 429.174 178.4H428.034V177.1H428.834C429.954 177.1 430.314 176.88 430.994 175L427.134 164.8H428.834ZM445.84 175.24C443.86 175.24 442.28 174.12 442.28 172.14C442.28 170.04 443.9 169.52 446.46 168.82C448.08 168.38 449.18 168.16 449.18 167.26C449.18 166.46 448.38 165.82 446.86 165.82C445.34 165.82 444.34 166.46 444.22 167.76H442.6C442.86 165.94 444.36 164.6 446.86 164.6C449.3 164.6 450.74 165.7 450.74 167.66V175H449.24V173.1C448.86 174.28 447.76 175.24 445.84 175.24ZM446.18 174.04C448.14 174.04 449.24 172.36 449.24 170.5V168.48C448.96 169.12 448.18 169.46 446.88 169.82C445.12 170.3 443.96 170.78 443.96 172.14C443.96 173.38 444.92 174.04 446.18 174.04ZM453.975 164.8H455.535V166.52C456.035 165.54 457.035 164.6 458.895 164.6C461.095 164.6 462.255 165.86 462.255 167.86V175H460.695V168.12C460.695 166.72 460.035 165.9 458.355 165.9C456.795 165.9 455.535 167.1 455.535 169.06V175H453.975V164.8ZM469.257 175.24C466.617 175.24 464.897 173 464.897 169.92C464.897 166.84 466.617 164.6 469.257 164.6C470.777 164.6 471.877 165.28 472.537 166.46V160.8H474.097V175H472.537V173.38C471.877 174.56 470.777 175.24 469.257 175.24ZM469.577 173.94C471.497 173.94 472.577 172.24 472.577 169.92C472.577 167.6 471.497 165.9 469.577 165.9C467.657 165.9 466.577 167.6 466.577 169.92C466.577 172.24 467.657 173.94 469.577 173.94ZM481.595 169.9C481.595 166.86 483.495 164.6 486.495 164.6C489.595 164.6 491.455 167.14 491.315 170.22H483.275C483.355 172.44 484.515 173.94 486.575 173.94C488.195 173.94 489.055 172.96 489.455 171.76H491.115C490.535 173.8 488.935 175.24 486.575 175.24C483.555 175.24 481.595 172.98 481.595 169.9ZM489.635 168.98C489.335 167.14 488.255 165.9 486.495 165.9C484.715 165.9 483.615 167.12 483.335 168.98H489.635ZM496.995 162.08C496.175 162.08 495.975 162.42 495.975 163.38V164.8H498.215V166.08H495.975V175H494.415V166.08H492.815V164.8H494.415V163.28C494.415 161.6 494.955 160.8 496.595 160.8H498.215V162.08H496.995ZM503.674 162.08C502.854 162.08 502.654 162.42 502.654 163.38V164.8H504.894V166.08H502.654V175H501.094V166.08H499.494V164.8H501.094V163.28C501.094 161.6 501.634 160.8 503.274 160.8H504.894V162.08H503.674ZM507.017 160.8H508.577V162.8H507.017V160.8ZM507.017 164.8H508.577V175H507.017V164.8ZM520.639 171.66C520.119 173.92 518.539 175.24 516.199 175.24C513.239 175.24 511.279 172.98 511.279 169.9C511.279 166.86 513.219 164.6 516.179 164.6C518.539 164.6 520.119 165.94 520.639 168.18H518.979C518.619 166.7 517.679 165.9 516.179 165.9C514.139 165.9 512.959 167.58 512.959 169.9C512.959 172.24 514.159 173.94 516.199 173.94C517.779 173.94 518.619 173.04 518.979 171.66H520.639ZM523.207 160.8H524.767V162.8H523.207V160.8ZM523.207 164.8H524.767V175H523.207V164.8ZM527.469 169.9C527.469 166.86 529.369 164.6 532.369 164.6C535.469 164.6 537.329 167.14 537.189 170.22H529.149C529.229 172.44 530.389 173.94 532.449 173.94C534.069 173.94 534.929 172.96 535.329 171.76H536.989C536.409 173.8 534.809 175.24 532.449 175.24C529.429 175.24 527.469 172.98 527.469 169.9ZM535.509 168.98C535.209 167.14 534.129 165.9 532.369 165.9C530.589 165.9 529.489 167.12 529.209 168.98H535.509ZM539.865 164.8H541.425V166.52C541.925 165.54 542.925 164.6 544.785 164.6C546.985 164.6 548.145 165.86 548.145 167.86V175H546.585V168.12C546.585 166.72 545.925 165.9 544.245 165.9C542.685 165.9 541.425 167.1 541.425 169.06V175H539.865V164.8ZM560.128 171.66C559.608 173.92 558.028 175.24 555.688 175.24C552.728 175.24 550.768 172.98 550.768 169.9C550.768 166.86 552.708 164.6 555.668 164.6C558.028 164.6 559.608 165.94 560.128 168.18H558.468C558.108 166.7 557.168 165.9 555.668 165.9C553.628 165.9 552.448 167.58 552.448 169.9C552.448 172.24 553.648 173.94 555.688 173.94C557.268 173.94 558.108 173.04 558.468 171.66H560.128ZM563.119 164.8L566.039 173.12L569.039 164.8H570.659L566.579 175.54C565.759 177.7 565.199 178.4 563.459 178.4H562.319V177.1H563.119C564.239 177.1 564.599 176.88 565.279 175L561.419 164.8H563.119ZM573.48 173V175H571.48V173H573.48Z" fill="#606060"/>
</svg>
