<svg width="1217" height="151" viewBox="0 0 1217 151" fill="none" xmlns="http://www.w3.org/2000/svg">
<path d="M72.0336 150.349H48.9996V20.7305H-3.75492e-05V-8.59068e-05H121.033V20.7305H72.0336V150.349ZM160.123 150.349H137.089V-8.59068e-05H193.208C227.759 -8.59068e-05 248.49 16.9613 248.49 46.9055C248.49 68.4737 234.879 85.0163 212.054 90.4607L252.887 150.349H225.247L187.764 93.8111H160.123V150.349ZM160.123 19.2647V74.5463H191.743C213.101 74.5463 225.247 65.1233 225.247 46.9055C225.247 28.8971 213.101 19.2647 191.743 19.2647H160.123ZM372.22 150.349L358.609 113.076H293.695L279.875 150.349H256.631L314.216 -8.59068e-05H339.554L396.72 150.349H372.22ZM326.361 25.1279L300.605 94.4393H351.699L326.361 25.1279ZM436.176 150.349H413.142V-8.59068e-05H436.176V150.349ZM555.553 150.349H464.464V-8.59068e-05H487.498V129.619H555.553V150.349ZM719.698 107.213C719.698 134.644 699.596 150.349 668.395 150.349H613.323V-8.59068e-05H665.464C695.827 -8.59068e-05 714.044 14.0297 714.044 39.3671C714.044 53.6063 705.459 65.7515 691.01 72.0335C709.647 77.2685 719.698 90.0419 719.698 107.213ZM663.998 18.4271H634.472V63.6575H663.998C682.216 63.6575 692.057 55.0721 692.057 41.0423C692.057 27.0125 682.216 18.4271 663.998 18.4271ZM666.929 82.0847H634.472V131.922H666.929C686.613 131.922 697.711 122.499 697.711 106.585C697.711 91.2983 686.613 82.0847 666.929 82.0847ZM833.032 150.349H741.943V-8.59068e-05H764.977V129.619H833.032V150.349ZM954.784 150.349L941.173 113.076H876.259L862.439 150.349H839.195L896.78 -8.59068e-05H922.118L979.284 150.349H954.784ZM908.926 25.1279L883.169 94.4393H934.263L908.926 25.1279ZM1101.66 150.349H987.54V132.76L1070.04 19.8929H989.215V-8.59068e-05H1098.73V18.0083L1016.02 130.456H1101.66V150.349ZM1216.74 130.247V150.349H1121.46V-8.59068e-05H1215.27V20.1023H1144.5V62.8199H1208.99V82.9223H1144.5V130.247H1216.74Z" fill="#FFFBFB" fill-opacity="0.46"/>
</svg>
