<svg width="452" height="43" viewBox="0 0 452 43" fill="none" xmlns="http://www.w3.org/2000/svg">
<rect width="452" height="43" rx="4" fill="white"/>
<path d="M19.936 28V17.904H16.816V16.304H24.784V17.904H21.664V28H19.936ZM26.4738 28V16.32H28.2018V21.152H31.6258V16.32H33.3538V28H31.6258V22.752H28.2018V28H26.4738ZM35.7315 28V16.32H42.5955V17.856H37.4275V21.168H42.0355V22.688H37.4275V26.464H42.5955V28H35.7315ZM53.815 28V16.32H57.255C58.3643 16.32 59.2337 16.5867 59.863 17.12C60.4923 17.6533 60.807 18.3893 60.807 19.328C60.807 19.8613 60.6897 20.3253 60.455 20.72C60.231 21.104 59.9163 21.4027 59.511 21.616C59.1057 21.8293 58.631 21.936 58.087 21.936V21.776C58.6737 21.7653 59.191 21.8773 59.639 22.112C60.087 22.336 60.439 22.672 60.695 23.12C60.951 23.568 61.079 24.1013 61.079 24.72C61.079 25.3813 60.9297 25.9627 60.631 26.464C60.343 26.9547 59.927 27.3333 59.383 27.6C58.8497 27.8667 58.215 28 57.479 28H53.815ZM55.495 26.512H57.335C57.9537 26.512 58.4443 26.3467 58.807 26.016C59.1697 25.6853 59.351 25.2267 59.351 24.64C59.351 24.0427 59.1697 23.5627 58.807 23.2C58.4443 22.8373 57.9537 22.656 57.335 22.656H55.495V26.512ZM55.495 21.216H57.239C57.815 21.216 58.2683 21.0613 58.599 20.752C58.9297 20.4427 59.095 20.0267 59.095 19.504C59.095 18.9813 58.9297 18.5707 58.599 18.272C58.2683 17.9627 57.8203 17.808 57.255 17.808H55.495V21.216ZM63.0727 28V16.32H69.9367V17.856H64.7687V21.168H69.3767V22.688H64.7687V26.464H69.9367V28H63.0727ZM75.5305 28.16C74.7412 28.16 74.0638 28.032 73.4985 27.776C72.9332 27.5093 72.4958 27.136 72.1865 26.656C71.8772 26.1653 71.7225 25.584 71.7225 24.912H73.4345C73.4345 25.4453 73.6212 25.8667 73.9945 26.176C74.3678 26.4747 74.8852 26.624 75.5465 26.624C76.1652 26.624 76.6505 26.4747 77.0025 26.176C77.3545 25.8773 77.5305 25.4667 77.5305 24.944C77.5305 24.5067 77.4078 24.128 77.1625 23.808C76.9278 23.488 76.5865 23.2693 76.1385 23.152L74.6665 22.72C73.8132 22.4747 73.1518 22.0587 72.6825 21.472C72.2238 20.8747 71.9945 20.1653 71.9945 19.344C71.9945 18.704 72.1385 18.144 72.4265 17.664C72.7145 17.184 73.1252 16.8107 73.6585 16.544C74.1918 16.2773 74.8212 16.144 75.5465 16.144C76.6132 16.144 77.4665 16.432 78.1065 17.008C78.7572 17.584 79.0878 18.3573 79.0985 19.328H77.3705C77.3705 18.816 77.2052 18.416 76.8745 18.128C76.5545 17.8293 76.1012 17.68 75.5145 17.68C74.9492 17.68 74.5065 17.8187 74.1865 18.096C73.8665 18.3627 73.7065 18.7413 73.7065 19.232C73.7065 19.6693 73.8238 20.048 74.0585 20.368C74.3038 20.688 74.6505 20.912 75.0985 21.04L76.5865 21.488C77.4398 21.7227 78.0958 22.1387 78.5545 22.736C79.0132 23.3333 79.2425 24.048 79.2425 24.88C79.2425 25.5307 79.0878 26.1067 78.7785 26.608C78.4692 27.0987 78.0372 27.4827 77.4825 27.76C76.9278 28.0267 76.2772 28.16 75.5305 28.16ZM83.7322 28V17.904H80.6122V16.304H88.5802V17.904H85.4602V28H83.7322ZM99.3678 28V16.32H103.032C103.768 16.32 104.408 16.464 104.952 16.752C105.496 17.0293 105.917 17.424 106.216 17.936C106.525 18.448 106.68 19.0507 106.68 19.744C106.68 20.5227 106.477 21.2 106.072 21.776C105.677 22.3413 105.138 22.7413 104.456 22.976L106.84 28H104.872L102.744 23.2H101.096V28H99.3678ZM101.096 21.68H103.032C103.608 21.68 104.066 21.5093 104.408 21.168C104.749 20.816 104.92 20.352 104.92 19.776C104.92 19.1787 104.749 18.7093 104.408 18.368C104.066 18.0267 103.608 17.856 103.032 17.856H101.096V21.68ZM111.937 28.16C110.817 28.16 109.953 27.856 109.345 27.248C108.737 26.6293 108.433 25.792 108.433 24.736V16.32H110.161V24.736C110.161 25.3227 110.305 25.7867 110.593 26.128C110.892 26.4693 111.34 26.64 111.937 26.64C112.524 26.64 112.967 26.4693 113.265 26.128C113.564 25.7867 113.713 25.3227 113.713 24.736V16.32H115.441V24.736C115.441 25.792 115.137 26.6293 114.529 27.248C113.921 27.856 113.057 28.16 111.937 28.16ZM117.547 28V16.32H119.723L123.131 26.032C123.11 25.7227 123.083 25.3547 123.051 24.928C123.019 24.5013 122.993 24.0587 122.971 23.6C122.961 23.1413 122.955 22.7253 122.955 22.352V16.32H124.555V28H122.379L118.987 18.288C119.009 18.5653 119.03 18.912 119.051 19.328C119.083 19.744 119.105 20.176 119.115 20.624C119.137 21.072 119.147 21.488 119.147 21.872V28H117.547ZM126.661 28V16.32H128.837L132.245 26.032C132.224 25.7227 132.197 25.3547 132.165 24.928C132.133 24.5013 132.106 24.0587 132.085 23.6C132.074 23.1413 132.069 22.7253 132.069 22.352V16.32H133.669V28H131.493L128.101 18.288C128.122 18.5653 128.144 18.912 128.165 19.328C128.197 19.744 128.218 20.176 128.229 20.624C128.25 21.072 128.261 21.488 128.261 21.872V28H126.661ZM136.047 28V26.464H138.399V17.856H136.047V16.32H142.511V17.856H140.159V26.464H142.511V28H136.047ZM144.888 28V16.32H147.064L150.472 26.032C150.451 25.7227 150.424 25.3547 150.392 24.928C150.36 24.5013 150.334 24.0587 150.312 23.6C150.302 23.1413 150.296 22.7253 150.296 22.352V16.32H151.896V28H149.72L146.328 18.288C146.35 18.5653 146.371 18.912 146.392 19.328C146.424 19.744 146.446 20.176 146.456 20.624C146.478 21.072 146.488 21.488 146.488 21.872V28H144.888ZM157.57 28.16C156.845 28.16 156.21 28.0267 155.666 27.76C155.133 27.4827 154.717 27.088 154.418 26.576C154.13 26.0533 153.986 25.4453 153.986 24.752V19.568C153.986 18.864 154.13 18.256 154.418 17.744C154.717 17.232 155.133 16.8427 155.666 16.576C156.21 16.2987 156.845 16.16 157.57 16.16C158.296 16.16 158.925 16.2987 159.458 16.576C159.992 16.8533 160.402 17.248 160.69 17.76C160.989 18.2613 161.138 18.864 161.138 19.568H159.41C159.41 18.96 159.25 18.496 158.93 18.176C158.61 17.856 158.157 17.696 157.57 17.696C156.984 17.696 156.525 17.856 156.194 18.176C155.874 18.496 155.714 18.9547 155.714 19.552V24.752C155.714 25.3493 155.874 25.8133 156.194 26.144C156.525 26.4747 156.984 26.64 157.57 26.64C158.157 26.64 158.61 26.4747 158.93 26.144C159.25 25.8133 159.41 25.3493 159.41 24.752V23.44H157.234V21.92H161.138V24.752C161.138 25.4453 160.989 26.048 160.69 26.56C160.402 27.072 159.992 27.4667 159.458 27.744C158.925 28.0213 158.296 28.16 157.57 28.16ZM172.278 28V16.32H176.102C176.859 16.32 177.515 16.464 178.07 16.752C178.635 17.04 179.067 17.4507 179.366 17.984C179.675 18.5067 179.83 19.1253 179.83 19.84C179.83 20.544 179.675 21.1627 179.366 21.696C179.056 22.2293 178.624 22.64 178.07 22.928C177.515 23.216 176.859 23.36 176.102 23.36H174.006V28H172.278ZM174.006 21.808H176.102C176.699 21.808 177.174 21.632 177.526 21.28C177.888 20.9173 178.07 20.4373 178.07 19.84C178.07 19.232 177.888 18.752 177.526 18.4C177.174 18.048 176.699 17.872 176.102 17.872H174.006V21.808ZM184.848 28.16C184.122 28.16 183.493 28.0267 182.96 27.76C182.437 27.4827 182.032 27.088 181.744 26.576C181.466 26.0533 181.328 25.4453 181.328 24.752V19.568C181.328 18.864 181.466 18.256 181.744 17.744C182.032 17.232 182.437 16.8427 182.96 16.576C183.493 16.2987 184.122 16.16 184.848 16.16C185.573 16.16 186.197 16.2987 186.72 16.576C187.253 16.8427 187.658 17.232 187.936 17.744C188.224 18.256 188.368 18.8587 188.368 19.552V24.752C188.368 25.4453 188.224 26.0533 187.936 26.576C187.658 27.088 187.253 27.4827 186.72 27.76C186.197 28.0267 185.573 28.16 184.848 28.16ZM184.848 26.624C185.434 26.624 185.877 26.464 186.176 26.144C186.485 25.8133 186.64 25.3493 186.64 24.752V19.568C186.64 18.96 186.485 18.496 186.176 18.176C185.877 17.856 185.434 17.696 184.848 17.696C184.272 17.696 183.829 17.856 183.52 18.176C183.21 18.496 183.056 18.96 183.056 19.568V24.752C183.056 25.3493 183.21 25.8133 183.52 26.144C183.829 26.464 184.272 26.624 184.848 26.624ZM190.905 28V16.32H192.633V26.416H197.737V28H190.905ZM199.779 28V16.32H206.643V17.856H201.475V21.168H206.083V22.688H201.475V26.464H206.643V28H199.779ZM212.237 28.16C211.447 28.16 210.77 28.032 210.205 27.776C209.639 27.5093 209.202 27.136 208.893 26.656C208.583 26.1653 208.429 25.584 208.429 24.912H210.141C210.141 25.4453 210.327 25.8667 210.701 26.176C211.074 26.4747 211.591 26.624 212.253 26.624C212.871 26.624 213.357 26.4747 213.709 26.176C214.061 25.8773 214.237 25.4667 214.237 24.944C214.237 24.5067 214.114 24.128 213.869 23.808C213.634 23.488 213.293 23.2693 212.845 23.152L211.373 22.72C210.519 22.4747 209.858 22.0587 209.389 21.472C208.93 20.8747 208.701 20.1653 208.701 19.344C208.701 18.704 208.845 18.144 209.133 17.664C209.421 17.184 209.831 16.8107 210.365 16.544C210.898 16.2773 211.527 16.144 212.253 16.144C213.319 16.144 214.173 16.432 214.813 17.008C215.463 17.584 215.794 18.3573 215.805 19.328H214.077C214.077 18.816 213.911 18.416 213.581 18.128C213.261 17.8293 212.807 17.68 212.221 17.68C211.655 17.68 211.213 17.8187 210.893 18.096C210.573 18.3627 210.413 18.7413 210.413 19.232C210.413 19.6693 210.53 20.048 210.765 20.368C211.01 20.688 211.357 20.912 211.805 21.04L213.293 21.488C214.146 21.7227 214.802 22.1387 215.261 22.736C215.719 23.3333 215.949 24.048 215.949 24.88C215.949 25.5307 215.794 26.1067 215.485 26.608C215.175 27.0987 214.743 27.4827 214.189 27.76C213.634 28.0267 212.983 28.16 212.237 28.16ZM230.416 28.16C229.691 28.16 229.062 28.0267 228.528 27.76C228.006 27.4827 227.6 27.088 227.312 26.576C227.035 26.0533 226.896 25.4453 226.896 24.752V19.568C226.896 18.864 227.035 18.256 227.312 17.744C227.6 17.232 228.006 16.8427 228.528 16.576C229.062 16.2987 229.691 16.16 230.416 16.16C231.142 16.16 231.766 16.2987 232.288 16.576C232.822 16.8427 233.227 17.232 233.504 17.744C233.792 18.256 233.936 18.8587 233.936 19.552V24.752C233.936 25.4453 233.792 26.0533 233.504 26.576C233.227 27.088 232.822 27.4827 232.288 27.76C231.766 28.0267 231.142 28.16 230.416 28.16ZM230.416 26.624C231.003 26.624 231.446 26.464 231.744 26.144C232.054 25.8133 232.208 25.3493 232.208 24.752V19.568C232.208 18.96 232.054 18.496 231.744 18.176C231.446 17.856 231.003 17.696 230.416 17.696C229.84 17.696 229.398 17.856 229.088 18.176C228.779 18.496 228.624 18.96 228.624 19.568V24.752C228.624 25.3493 228.779 25.8133 229.088 26.144C229.398 26.464 229.84 26.624 230.416 26.624ZM236.138 28V16.304H243.194V17.904H237.818V21.392H242.778V22.992H237.85V28H236.138ZM254.318 28V26.288L257.934 22.56C258.488 21.984 258.894 21.4667 259.15 21.008C259.416 20.5387 259.55 20.0747 259.55 19.616C259.55 19.0187 259.384 18.5493 259.054 18.208C258.734 17.8667 258.291 17.696 257.726 17.696C257.107 17.696 256.616 17.8773 256.254 18.24C255.902 18.592 255.726 19.0773 255.726 19.696H253.998C254.019 18.9707 254.184 18.3467 254.494 17.824C254.803 17.2907 255.235 16.88 255.79 16.592C256.344 16.304 256.995 16.16 257.742 16.16C258.456 16.16 259.08 16.2987 259.614 16.576C260.147 16.8533 260.558 17.2427 260.846 17.744C261.134 18.2453 261.278 18.8373 261.278 19.52C261.278 20.2133 261.096 20.8907 260.734 21.552C260.382 22.2133 259.8 22.9493 258.99 23.76L256.35 26.432H261.454V28H254.318ZM266.871 28.16C266.135 28.16 265.495 28.016 264.951 27.728C264.418 27.44 264.002 27.04 263.703 26.528C263.405 26.0053 263.255 25.3973 263.255 24.704V19.616C263.255 18.912 263.399 18.304 263.687 17.792C263.986 17.28 264.407 16.88 264.951 16.592C265.495 16.304 266.135 16.16 266.871 16.16C267.618 16.16 268.258 16.304 268.791 16.592C269.335 16.88 269.751 17.28 270.039 17.792C270.338 18.304 270.487 18.912 270.487 19.616V24.704C270.487 25.3973 270.338 26.0053 270.039 26.528C269.741 27.04 269.319 27.44 268.775 27.728C268.242 28.016 267.607 28.16 266.871 28.16ZM266.871 26.672C267.469 26.672 267.943 26.4907 268.295 26.128C268.658 25.7653 268.839 25.2907 268.839 24.704V19.616C268.839 19.0293 268.658 18.5547 268.295 18.192C267.943 17.8293 267.469 17.648 266.871 17.648C266.274 17.648 265.794 17.8293 265.431 18.192C265.079 18.5547 264.903 19.0293 264.903 19.616V24.704C264.903 25.2907 265.079 25.7653 265.431 26.128C265.794 26.4907 266.274 26.672 266.871 26.672ZM266.871 23.152C266.573 23.152 266.327 23.056 266.135 22.864C265.954 22.672 265.863 22.4213 265.863 22.112C265.863 21.8133 265.954 21.5733 266.135 21.392C266.327 21.2 266.573 21.104 266.871 21.104C267.17 21.104 267.41 21.2 267.591 21.392C267.783 21.5733 267.879 21.8133 267.879 22.112C267.879 22.4213 267.783 22.672 267.591 22.864C267.41 23.056 267.17 23.152 266.871 23.152ZM272.545 28V26.288L276.161 22.56C276.716 21.984 277.121 21.4667 277.377 21.008C277.644 20.5387 277.777 20.0747 277.777 19.616C277.777 19.0187 277.612 18.5493 277.281 18.208C276.961 17.8667 276.518 17.696 275.953 17.696C275.334 17.696 274.844 17.8773 274.481 18.24C274.129 18.592 273.953 19.0773 273.953 19.696H272.225C272.246 18.9707 272.412 18.3467 272.721 17.824C273.03 17.2907 273.462 16.88 274.017 16.592C274.572 16.304 275.222 16.16 275.969 16.16C276.684 16.16 277.308 16.2987 277.841 16.576C278.374 16.8533 278.785 17.2427 279.073 17.744C279.361 18.2453 279.505 18.8373 279.505 19.52C279.505 20.2133 279.324 20.8907 278.961 21.552C278.609 22.2133 278.028 22.9493 277.217 23.76L274.577 26.432H279.681V28H272.545ZM285.067 28.16C284.053 28.16 283.232 27.904 282.603 27.392C281.973 26.8693 281.621 26.1707 281.547 25.296H283.259C283.312 25.7227 283.493 26.0533 283.803 26.288C284.112 26.5227 284.539 26.64 285.083 26.64C285.691 26.64 286.149 26.48 286.459 26.16C286.779 25.8293 286.939 25.3707 286.939 24.784V23.648C286.939 23.0507 286.784 22.592 286.475 22.272C286.165 21.9413 285.707 21.776 285.099 21.776C284.715 21.776 284.384 21.8667 284.107 22.048C283.829 22.2187 283.627 22.4587 283.499 22.768H281.787L281.867 16.32H288.235V17.888H283.515L283.483 21.52H283.931L283.467 21.936C283.467 21.4347 283.664 21.04 284.059 20.752C284.453 20.464 284.981 20.32 285.643 20.32C286.592 20.32 287.328 20.6133 287.851 21.2C288.384 21.776 288.651 22.592 288.651 23.648V24.784C288.651 25.8187 288.336 26.64 287.707 27.248C287.077 27.856 286.197 28.16 285.067 28.16ZM300.766 23.504V21.936H305.886V23.504H300.766ZM317.442 28L320.418 16.32H322.69L325.666 28H323.922L323.218 25.04H319.906L319.202 28H317.442ZM320.226 23.616H322.882L322.082 20.24C321.943 19.6427 321.826 19.1253 321.73 18.688C321.644 18.24 321.586 17.936 321.554 17.776C321.522 17.936 321.463 18.24 321.378 18.688C321.292 19.1253 321.175 19.6373 321.026 20.224L320.226 23.616ZM327.195 28V16.32H330.459C331.227 16.32 331.894 16.4693 332.459 16.768C333.025 17.056 333.462 17.4667 333.771 18C334.091 18.5333 334.251 19.1627 334.251 19.888V24.416C334.251 25.1307 334.091 25.76 333.771 26.304C333.462 26.848 333.025 27.2693 332.459 27.568C331.894 27.856 331.227 28 330.459 28H327.195ZM328.923 26.432H330.459C331.099 26.432 331.601 26.256 331.963 25.904C332.337 25.5413 332.523 25.0453 332.523 24.416V19.888C332.523 19.2693 332.337 18.784 331.963 18.432C331.601 18.0693 331.099 17.888 330.459 17.888H328.923V26.432ZM338.629 28L335.669 16.32H337.445L339.317 24.096C339.435 24.5547 339.536 25.0133 339.621 25.472C339.717 25.92 339.787 26.272 339.829 26.528C339.872 26.272 339.931 25.92 340.005 25.472C340.091 25.0133 340.192 24.5493 340.309 24.08L342.165 16.32H343.893L340.917 28H338.629ZM345.599 28V16.32H352.463V17.856H347.295V21.168H351.903V22.688H347.295V26.464H352.463V28H345.599ZM354.505 28V16.32H356.681L360.089 26.032C360.067 25.7227 360.041 25.3547 360.009 24.928C359.977 24.5013 359.95 24.0587 359.929 23.6C359.918 23.1413 359.913 22.7253 359.913 22.352V16.32H361.513V28H359.337L355.945 18.288C355.966 18.5653 355.987 18.912 356.009 19.328C356.041 19.744 356.062 20.176 356.073 20.624C356.094 21.072 356.105 21.488 356.105 21.872V28H354.505ZM366.259 28V17.904H363.139V16.304H371.107V17.904H367.987V28H366.259ZM376.236 28.16C375.116 28.16 374.252 27.856 373.644 27.248C373.036 26.6293 372.732 25.792 372.732 24.736V16.32H374.46V24.736C374.46 25.3227 374.604 25.7867 374.892 26.128C375.191 26.4693 375.639 26.64 376.236 26.64C376.823 26.64 377.266 26.4693 377.564 26.128C377.863 25.7867 378.012 25.3227 378.012 24.736V16.32H379.74V24.736C379.74 25.792 379.436 26.6293 378.828 27.248C378.22 27.856 377.356 28.16 376.236 28.16ZM381.894 28V16.32H385.558C386.294 16.32 386.934 16.464 387.478 16.752C388.022 17.0293 388.443 17.424 388.742 17.936C389.051 18.448 389.206 19.0507 389.206 19.744C389.206 20.5227 389.003 21.2 388.598 21.776C388.203 22.3413 387.665 22.7413 386.982 22.976L389.366 28H387.398L385.27 23.2H383.622V28H381.894ZM383.622 21.68H385.558C386.134 21.68 386.593 21.5093 386.934 21.168C387.275 20.816 387.446 20.352 387.446 19.776C387.446 19.1787 387.275 18.7093 386.934 18.368C386.593 18.0267 386.134 17.856 385.558 17.856H383.622V21.68ZM391.168 28V16.32H398.032V17.856H392.864V21.168H397.472V22.688H392.864V26.464H398.032V28H391.168ZM403.577 28.16C403.151 28.16 402.809 28.0373 402.553 27.792C402.297 27.536 402.169 27.1947 402.169 26.768C402.169 26.3307 402.297 25.984 402.553 25.728C402.809 25.4613 403.151 25.328 403.577 25.328C404.015 25.328 404.356 25.4613 404.601 25.728C404.857 25.984 404.985 26.3307 404.985 26.768C404.985 27.1947 404.857 27.536 404.601 27.792C404.356 28.0373 404.015 28.16 403.577 28.16ZM412.755 28.16C412.03 28.16 411.395 28.0267 410.851 27.76C410.318 27.4827 409.902 27.088 409.603 26.576C409.315 26.0533 409.171 25.4453 409.171 24.752V19.568C409.171 18.864 409.315 18.256 409.603 17.744C409.902 17.232 410.318 16.8427 410.851 16.576C411.395 16.2987 412.03 16.16 412.755 16.16C413.481 16.16 414.11 16.2987 414.643 16.576C415.177 16.8533 415.587 17.248 415.875 17.76C416.174 18.2613 416.323 18.864 416.323 19.568H414.595C414.595 18.96 414.435 18.496 414.115 18.176C413.795 17.856 413.342 17.696 412.755 17.696C412.169 17.696 411.71 17.856 411.379 18.176C411.059 18.496 410.899 18.9547 410.899 19.552V24.752C410.899 25.3493 411.059 25.8133 411.379 26.144C411.71 26.464 412.169 26.624 412.755 26.624C413.342 26.624 413.795 26.464 414.115 26.144C414.435 25.8133 414.595 25.3493 414.595 24.752H416.323C416.323 25.4453 416.174 26.048 415.875 26.56C415.587 27.072 415.177 27.4667 414.643 27.744C414.11 28.0213 413.481 28.16 412.755 28.16ZM421.805 28.16C421.08 28.16 420.45 28.0267 419.917 27.76C419.394 27.4827 418.989 27.088 418.701 26.576C418.424 26.0533 418.285 25.4453 418.285 24.752V19.568C418.285 18.864 418.424 18.256 418.701 17.744C418.989 17.232 419.394 16.8427 419.917 16.576C420.45 16.2987 421.08 16.16 421.805 16.16C422.53 16.16 423.154 16.2987 423.677 16.576C424.21 16.8427 424.616 17.232 424.893 17.744C425.181 18.256 425.325 18.8587 425.325 19.552V24.752C425.325 25.4453 425.181 26.0533 424.893 26.576C424.616 27.088 424.21 27.4827 423.677 27.76C423.154 28.0267 422.53 28.16 421.805 28.16ZM421.805 26.624C422.392 26.624 422.834 26.464 423.133 26.144C423.442 25.8133 423.597 25.3493 423.597 24.752V19.568C423.597 18.96 423.442 18.496 423.133 18.176C422.834 17.856 422.392 17.696 421.805 17.696C421.229 17.696 420.786 17.856 420.477 18.176C420.168 18.496 420.013 18.96 420.013 19.568V24.752C420.013 25.3493 420.168 25.8133 420.477 26.144C420.786 26.464 421.229 26.624 421.805 26.624ZM427.175 28V16.32H429.303L430.471 20.064C430.588 20.416 430.689 20.7573 430.775 21.088C430.86 21.408 430.919 21.648 430.951 21.808C430.993 21.648 431.052 21.408 431.127 21.088C431.212 20.7573 431.308 20.416 431.415 20.064L432.535 16.32H434.663V28H433.031V24.064C433.031 23.5627 433.041 23.008 433.063 22.4C433.095 21.7813 433.137 21.1627 433.191 20.544C433.244 19.9147 433.297 19.3173 433.351 18.752C433.404 18.176 433.452 17.6747 433.495 17.248L431.767 22.928H430.103L428.343 17.248C428.396 17.664 428.449 18.1493 428.503 18.704C428.556 19.248 428.604 19.8293 428.647 20.448C428.689 21.0667 428.727 21.6907 428.759 22.32C428.791 22.9387 428.807 23.52 428.807 24.064V28H427.175Z" fill="black"/>
</svg>
