<svg width="24" height="24" viewBox="0 0 24 24" fill="none" xmlns="http://www.w3.org/2000/svg">
<path d="M15.3333 15.3333C14.597 15.3333 14 15.9303 14 16.6667C14 17.403 14.597 18 15.3333 18C16.0697 18 16.6667 17.403 16.6667 16.6667C16.6667 15.9303 16.0697 15.3333 15.3333 15.3333ZM15.3333 15.3333H10.196C9.88859 15.3333 9.73462 15.3333 9.60807 15.2786C9.49644 15.2304 9.39959 15.1527 9.32903 15.0537C9.24994 14.9427 9.21813 14.7942 9.15516 14.5003L7.51432 6.8431C7.44989 6.54242 7.41725 6.39225 7.33724 6.27995C7.26668 6.1809 7.16985 6.10294 7.05821 6.0547C6.93164 6 6.77853 6 6.47102 6H6M8 8H16.5821C17.0633 8 17.3037 8 17.4652 8.10024C17.6066 8.18804 17.7102 8.32575 17.7554 8.486C17.8069 8.66895 17.7407 8.89998 17.6073 9.3623L16.6842 12.5623C16.6045 12.8387 16.5646 12.9767 16.4837 13.0793C16.4123 13.1698 16.3181 13.2407 16.2114 13.2842C16.0908 13.3333 15.9474 13.3333 15.6614 13.3333H9.15365M9.33333 18C8.59695 18 8 17.403 8 16.6667C8 15.9303 8.59695 15.3333 9.33333 15.3333C10.0697 15.3333 10.6667 15.9303 10.6667 16.6667C10.6667 17.403 10.0697 18 9.33333 18Z" stroke="#101010" stroke-linecap="round" stroke-linejoin="round"/>
</svg>
