<svg width="67" height="16" viewBox="0 0 67 16" fill="none" xmlns="http://www.w3.org/2000/svg">
<path d="M6.09563 15.2C5.16229 15.2 4.34229 15.0267 3.63563 14.68C2.94229 14.32 2.40229 13.82 2.01563 13.18C1.64229 12.5267 1.45563 11.76 1.45563 10.88V4.52C1.45563 3.62667 1.64229 2.86 2.01563 2.22C2.40229 1.58 2.94229 1.08667 3.63563 0.739999C4.34229 0.379999 5.16229 0.2 6.09563 0.2C7.04229 0.2 7.85563 0.379999 8.53563 0.739999C9.22896 1.08667 9.76896 1.58 10.1556 2.22C10.5423 2.86 10.7356 3.62667 10.7356 4.52H8.21563C8.21563 3.82667 8.02896 3.3 7.65563 2.94C7.29563 2.58 6.77563 2.4 6.09563 2.4C5.41563 2.4 4.88896 2.58 4.51563 2.94C4.14229 3.3 3.95563 3.82 3.95563 4.5V10.88C3.95563 11.56 4.14229 12.0867 4.51563 12.46C4.88896 12.82 5.41563 13 6.09563 13C6.77563 13 7.29563 12.82 7.65563 12.46C8.02896 12.0867 8.21563 11.56 8.21563 10.88H10.7356C10.7356 11.7467 10.5423 12.5067 10.1556 13.16C9.76896 13.8133 9.22896 14.32 8.53563 14.68C7.85563 15.0267 7.04229 15.2 6.09563 15.2ZM12.7078 15L16.3878 0.4H19.6078L23.3078 15H20.7478L19.9478 11.46H16.0678L15.2678 15H12.7078ZM16.5278 9.42H19.4878L18.6078 5.5C18.4611 4.84667 18.3345 4.26 18.2278 3.74C18.1211 3.20667 18.0478 2.82 18.0078 2.58C17.9678 2.82 17.8945 3.20667 17.7878 3.74C17.6945 4.26 17.5678 4.84 17.4078 5.48L16.5278 9.42ZM25.52 15V0.4H30.14C31.1133 0.4 31.9533 0.58 32.66 0.94C33.38 1.3 33.94 1.80667 34.34 2.46C34.74 3.1 34.94 3.86 34.94 4.74C34.94 5.7 34.6933 6.54667 34.2 7.28C33.72 8.01333 33.0667 8.53333 32.24 8.84L35.14 15H32.34L29.8 9.2H28.02V15H25.52ZM28.02 7H30.14C30.8467 7 31.4 6.80667 31.8 6.42C32.2 6.03333 32.4 5.5 32.4 4.82C32.4 4.12667 32.2 3.58667 31.8 3.2C31.4 2.8 30.8467 2.6 30.14 2.6H28.02V7ZM40.7322 15V2.72H36.9122V0.4H47.0722V2.72H43.2522V15H40.7322Z" fill="#121212"/>
<path d="M61.7814 15.2C60.8347 15.2 60.0147 15.02 59.3214 14.66C58.6281 14.3 58.0881 13.7933 57.7014 13.14C57.3281 12.4867 57.1414 11.72 57.1414 10.84V4.56C57.1414 3.68 57.3281 2.91333 57.7014 2.26C58.0881 1.60667 58.6281 1.1 59.3214 0.739999C60.0147 0.379999 60.8347 0.2 61.7814 0.2C62.7414 0.2 63.5614 0.379999 64.2414 0.739999C64.9347 1.1 65.4681 1.60667 65.8414 2.26C66.2281 2.91333 66.4214 3.68 66.4214 4.56V10.84C66.4214 11.72 66.2281 12.4867 65.8414 13.14C65.4681 13.7933 64.9347 14.3 64.2414 14.66C63.5481 15.02 62.7281 15.2 61.7814 15.2ZM61.7814 13.04C62.4747 13.04 63.0281 12.84 63.4414 12.44C63.8547 12.04 64.0614 11.5067 64.0614 10.84V4.56C64.0614 3.89333 63.8547 3.36 63.4414 2.96C63.0281 2.56 62.4747 2.36 61.7814 2.36C61.0881 2.36 60.5347 2.56 60.1214 2.96C59.7081 3.36 59.5014 3.89333 59.5014 4.56V10.84C59.5014 11.5067 59.7081 12.04 60.1214 12.44C60.5347 12.84 61.0881 13.04 61.7814 13.04ZM61.7814 9C61.3947 9 61.0747 8.87333 60.8214 8.62C60.5814 8.36667 60.4614 8.04 60.4614 7.64C60.4614 7.24 60.5814 6.92 60.8214 6.68C61.0614 6.44 61.3814 6.32 61.7814 6.32C62.1814 6.32 62.5014 6.44 62.7414 6.68C62.9814 6.92 63.1014 7.24 63.1014 7.64C63.1014 8.04 62.9814 8.36667 62.7414 8.62C62.5014 8.87333 62.1814 9 61.7814 9Z" fill="#121212"/>
</svg>
