<svg width="24" height="24" viewBox="0 0 24 24" fill="none" xmlns="http://www.w3.org/2000/svg">
<path d="M14.6776 19.1669L11.9134 21.0796C11.7829 21.1698 11.6094 21.1667 11.4823 21.0718L8.78612 19.0571M14.6795 19.1658L14.681 19.1645L14.6851 19.162C14.6851 19.162 14.691 19.1577 14.6945 19.1553C14.7014 19.1505 14.7097 19.1448 14.7192 19.1381C14.738 19.125 14.7618 19.1081 14.7903 19.0877C14.8472 19.0473 14.9232 18.9929 15.0152 18.9255C15.1986 18.7909 15.4493 18.6029 15.7448 18.37C16.3276 17.9108 17.1265 17.2444 17.9465 16.4406C18.7451 15.6579 19.694 14.6183 20.4768 13.3997C21.2077 12.2617 22.1538 10.4163 22.1538 8.13804C22.1538 5.17294 19.838 2.76923 16.9811 2.76923C15.0783 2.76923 13.4156 3.83562 12.5172 5.42401C12.3316 5.75215 11.6684 5.75215 11.4828 5.42401C10.5844 3.83562 8.92166 2.76923 7.01885 2.76923C4.16204 2.76923 1.84613 5.17294 1.84613 8.13804C1.84613 10.3035 2.68179 12.0917 3.36568 13.2416C4.08974 14.459 4.97202 15.5042 5.72004 16.2961C6.48649 17.1075 7.23363 17.7808 7.77993 18.2458C8.05696 18.4815 8.29222 18.672 8.46507 18.809C8.55171 18.8775 8.62347 18.9332 8.6776 18.9748C8.70468 18.9954 8.72756 19.013 8.74571 19.0268C8.75472 19.0337 8.76258 19.0396 8.76928 19.0445C8.77262 19.0471 8.77862 19.0512 8.77862 19.0512L8.78237 19.0543L8.78424 19.0554" stroke="#121212" stroke-width="2" stroke-linecap="round"/>
</svg>
