<svg width="320" height="180" viewBox="0 0 320 180" fill="none" xmlns="http://www.w3.org/2000/svg">
<path d="M5.565 4.35C7.635 4.35 9 5.46 9 7.155C9 8.58 8.085 9.54 6.645 9.765C8.025 9.975 8.52 10.815 8.67 12.435C8.79 13.785 9.105 14.49 9.405 15H7.965C7.755 14.505 7.5 13.905 7.365 12.39C7.23 10.83 6.69 10.305 5.07 10.305H2.415V15H1.14V4.35H5.565ZM5.22 9.195C6.84 9.195 7.695 8.565 7.695 7.35C7.695 6.12 6.84 5.505 5.22 5.505H2.415V9.195H5.22ZM10.7333 11.175C10.7333 8.895 12.1583 7.2 14.4083 7.2C16.7333 7.2 18.1283 9.105 18.0233 11.415H11.9933C12.0533 13.08 12.9233 14.205 14.4683 14.205C15.6833 14.205 16.3283 13.47 16.6283 12.57H17.8733C17.4383 14.1 16.2383 15.18 14.4683 15.18C12.2033 15.18 10.7333 13.485 10.7333 11.175ZM16.7633 10.485C16.5383 9.105 15.7283 8.175 14.4083 8.175C13.0733 8.175 12.2483 9.09 12.0383 10.485H16.7633ZM22.8507 15.18C20.8707 15.18 19.5807 13.5 19.5807 11.19C19.5807 8.88 20.8707 7.2 22.8507 7.2C23.9907 7.2 24.8157 7.71 25.3107 8.595V4.35H26.4807V15H25.3107V13.785C24.8157 14.67 23.9907 15.18 22.8507 15.18ZM23.0907 14.205C24.5307 14.205 25.3407 12.93 25.3407 11.19C25.3407 9.45 24.5307 8.175 23.0907 8.175C21.6507 8.175 20.8407 9.45 20.8407 11.19C20.8407 12.93 21.6507 14.205 23.0907 14.205ZM31.3957 15.18C29.8357 15.18 28.9057 14.205 28.9057 12.705V7.35H30.0757V12.51C30.0757 13.56 30.5857 14.175 31.7557 14.175C32.8807 14.175 33.8257 13.275 33.8257 11.805V7.35H34.9957V15H33.8257V13.71C33.4807 14.49 32.7607 15.18 31.3957 15.18ZM44.0455 12.495C43.6555 14.19 42.4705 15.18 40.7155 15.18C38.4955 15.18 37.0255 13.485 37.0255 11.175C37.0255 8.895 38.4805 7.2 40.7005 7.2C42.4705 7.2 43.6555 8.205 44.0455 9.885H42.8005C42.5305 8.775 41.8255 8.175 40.7005 8.175C39.1705 8.175 38.2855 9.435 38.2855 11.175C38.2855 12.93 39.1855 14.205 40.7155 14.205C41.9005 14.205 42.5305 13.53 42.8005 12.495H44.0455ZM45.5064 11.175C45.5064 8.895 46.9314 7.2 49.1814 7.2C51.5064 7.2 52.9014 9.105 52.7964 11.415H46.7664C46.8264 13.08 47.6964 14.205 49.2414 14.205C50.4564 14.205 51.1014 13.47 51.4014 12.57H52.6464C52.2114 14.1 51.0114 15.18 49.2414 15.18C46.9764 15.18 45.5064 13.485 45.5064 11.175ZM51.5364 10.485C51.3114 9.105 50.5014 8.175 49.1814 8.175C47.8464 8.175 47.0214 9.09 46.8114 10.485H51.5364ZM57.6688 15.18C55.5838 15.18 54.3538 14.19 54.2188 12.525H55.4338C55.5538 13.8 56.4988 14.25 57.6688 14.25C58.9288 14.25 59.4238 13.605 59.4238 12.885C59.4238 12.03 58.8688 11.82 57.4588 11.46C55.9738 11.085 54.5038 10.785 54.5038 9.24C54.5038 8.04 55.6588 7.17 57.4588 7.17C59.3188 7.17 60.3688 8.145 60.5488 9.48H59.3488C59.2288 8.595 58.5538 8.1 57.4588 8.1C56.3788 8.1 55.7338 8.595 55.7338 9.18C55.7338 9.96 56.5288 10.155 57.8338 10.485C59.4088 10.875 60.6538 11.28 60.6538 12.81C60.6538 14.325 59.4538 15.18 57.6688 15.18ZM68.6427 5.31C68.0277 5.31 67.8777 5.565 67.8777 6.285V7.35H69.5577V8.31H67.8777V15H66.7077V8.31H65.5077V7.35H66.7077V6.21C66.7077 4.95 67.1127 4.35 68.3427 4.35H69.5577V5.31H68.6427ZM73.2075 15.18C71.7225 15.18 70.5375 14.34 70.5375 12.855C70.5375 11.28 71.7525 10.89 73.6725 10.365C74.8875 10.035 75.7125 9.87 75.7125 9.195C75.7125 8.595 75.1125 8.115 73.9725 8.115C72.8325 8.115 72.0825 8.595 71.9925 9.57H70.7775C70.9725 8.205 72.0975 7.2 73.9725 7.2C75.8025 7.2 76.8825 8.025 76.8825 9.495V15H75.7575V13.575C75.4725 14.46 74.6475 15.18 73.2075 15.18ZM73.4625 14.28C74.9325 14.28 75.7575 13.02 75.7575 11.625V10.11C75.5475 10.59 74.9625 10.845 73.9875 11.115C72.6675 11.475 71.7975 11.835 71.7975 12.855C71.7975 13.785 72.5175 14.28 73.4625 14.28ZM82.5483 8.31H80.8683V13.065C80.8683 13.815 80.9733 14.04 81.6333 14.04H82.5483V15H81.3333C80.0283 15 79.6983 14.4 79.6983 13.14V8.31H78.4983V7.35H79.6983V5.31H80.8683V7.35H82.5483V8.31ZM84.4493 4.35H85.6193V5.85H84.4493V4.35ZM84.4493 7.35H85.6193V15H84.4493V7.35ZM91.2758 17.73C89.3408 17.73 88.1858 16.74 87.9608 15.45H89.1908C89.3858 16.23 90.0308 16.785 91.2758 16.785C92.6858 16.785 93.3908 16.08 93.3908 14.595V13.575C92.8958 14.46 92.0558 14.91 90.9308 14.91C88.9508 14.91 87.6608 13.29 87.6608 11.04C87.6608 8.82 88.9508 7.2 90.9308 7.2C92.0558 7.2 92.8958 7.71 93.3908 8.595V7.35H94.5608V14.355C94.5608 16.485 93.5708 17.73 91.2758 17.73ZM91.1708 13.935C92.6108 13.935 93.4208 12.72 93.4208 11.04C93.4208 9.39 92.6108 8.175 91.1708 8.175C89.7308 8.175 88.9208 9.39 88.9208 11.04C88.9208 12.72 89.7308 13.935 91.1708 13.935ZM99.4758 15.18C97.9158 15.18 96.9858 14.205 96.9858 12.705V7.35H98.1558V12.51C98.1558 13.56 98.6658 14.175 99.8358 14.175C100.961 14.175 101.906 13.275 101.906 11.805V7.35H103.076V15H101.906V13.71C101.561 14.49 100.841 15.18 99.4758 15.18ZM105.106 11.175C105.106 8.895 106.531 7.2 108.781 7.2C111.106 7.2 112.501 9.105 112.396 11.415H106.366C106.426 13.08 107.296 14.205 108.841 14.205C110.056 14.205 110.701 13.47 111.001 12.57H112.246C111.811 14.1 110.611 15.18 108.841 15.18C106.576 15.18 105.106 13.485 105.106 11.175ZM111.136 10.485C110.911 9.105 110.101 8.175 108.781 8.175C107.446 8.175 106.621 9.09 106.411 10.485H111.136ZM120.181 15.18C118.696 15.18 117.511 14.34 117.511 12.855C117.511 11.28 118.726 10.89 120.646 10.365C121.861 10.035 122.686 9.87 122.686 9.195C122.686 8.595 122.086 8.115 120.946 8.115C119.806 8.115 119.056 8.595 118.966 9.57H117.751C117.946 8.205 119.071 7.2 120.946 7.2C122.776 7.2 123.856 8.025 123.856 9.495V15H122.731V13.575C122.446 14.46 121.621 15.18 120.181 15.18ZM120.436 14.28C121.906 14.28 122.731 13.02 122.731 11.625V10.11C122.521 10.59 121.936 10.845 120.961 11.115C119.641 11.475 118.771 11.835 118.771 12.855C118.771 13.785 119.491 14.28 120.436 14.28ZM126.282 7.35H127.452V8.64C127.827 7.905 128.577 7.2 129.972 7.2C131.622 7.2 132.492 8.145 132.492 9.645V15H131.322V9.84C131.322 8.79 130.827 8.175 129.567 8.175C128.397 8.175 127.452 9.075 127.452 10.545V15H126.282V7.35ZM137.744 15.18C135.764 15.18 134.474 13.5 134.474 11.19C134.474 8.88 135.764 7.2 137.744 7.2C138.884 7.2 139.709 7.71 140.204 8.595V4.35H141.374V15H140.204V13.785C139.709 14.67 138.884 15.18 137.744 15.18ZM137.984 14.205C139.424 14.205 140.234 12.93 140.234 11.19C140.234 9.45 139.424 8.175 137.984 8.175C136.544 8.175 135.734 9.45 135.734 11.19C135.734 12.93 136.544 14.205 137.984 14.205ZM151.092 15.18C149.952 15.18 149.127 14.67 148.632 13.785V15H147.462V4.35H148.632V8.595C149.127 7.71 149.952 7.2 151.092 7.2C153.072 7.2 154.362 8.88 154.362 11.19C154.362 13.5 153.072 15.18 151.092 15.18ZM150.852 14.205C152.292 14.205 153.102 12.93 153.102 11.19C153.102 9.45 152.292 8.175 150.852 8.175C149.412 8.175 148.602 9.45 148.602 11.19C148.602 12.93 149.412 14.205 150.852 14.205ZM159.592 15.18C157.372 15.18 155.932 13.485 155.932 11.175C155.932 8.895 157.372 7.2 159.592 7.2C161.812 7.2 163.252 8.895 163.252 11.175C163.252 13.485 161.812 15.18 159.592 15.18ZM159.592 14.205C161.107 14.205 161.992 12.93 161.992 11.175C161.992 9.435 161.107 8.175 159.592 8.175C158.077 8.175 157.192 9.435 157.192 11.175C157.192 12.93 158.077 14.205 159.592 14.205ZM168.468 15.18C166.248 15.18 164.808 13.485 164.808 11.175C164.808 8.895 166.248 7.2 168.468 7.2C170.688 7.2 172.128 8.895 172.128 11.175C172.128 13.485 170.688 15.18 168.468 15.18ZM168.468 14.205C169.983 14.205 170.868 12.93 170.868 11.175C170.868 9.435 169.983 8.175 168.468 8.175C166.953 8.175 166.068 9.435 166.068 11.175C166.068 12.93 166.953 14.205 168.468 14.205ZM177.014 15.18C174.929 15.18 173.699 14.19 173.564 12.525H174.779C174.899 13.8 175.844 14.25 177.014 14.25C178.274 14.25 178.769 13.605 178.769 12.885C178.769 12.03 178.214 11.82 176.804 11.46C175.319 11.085 173.849 10.785 173.849 9.24C173.849 8.04 175.004 7.17 176.804 7.17C178.664 7.17 179.714 8.145 179.894 9.48H178.694C178.574 8.595 177.899 8.1 176.804 8.1C175.724 8.1 175.079 8.595 175.079 9.18C175.079 9.96 175.874 10.155 177.179 10.485C178.754 10.875 179.999 11.28 179.999 12.81C179.999 14.325 178.799 15.18 177.014 15.18ZM185.24 8.31H183.56V13.065C183.56 13.815 183.665 14.04 184.325 14.04H185.24V15H184.025C182.72 15 182.39 14.4 182.39 13.14V8.31H181.19V7.35H182.39V5.31H183.56V7.35H185.24V8.31ZM189.948 15.18C187.863 15.18 186.633 14.19 186.498 12.525H187.713C187.833 13.8 188.778 14.25 189.948 14.25C191.208 14.25 191.703 13.605 191.703 12.885C191.703 12.03 191.148 11.82 189.738 11.46C188.253 11.085 186.783 10.785 186.783 9.24C186.783 8.04 187.938 7.17 189.738 7.17C191.598 7.17 192.648 8.145 192.828 9.48H191.628C191.508 8.595 190.833 8.1 189.738 8.1C188.658 8.1 188.013 8.595 188.013 9.18C188.013 9.96 188.808 10.155 190.113 10.485C191.688 10.875 192.933 11.28 192.933 12.81C192.933 14.325 191.733 15.18 189.948 15.18ZM201.402 15.18C199.317 15.18 198.087 14.19 197.952 12.525H199.167C199.287 13.8 200.232 14.25 201.402 14.25C202.662 14.25 203.157 13.605 203.157 12.885C203.157 12.03 202.602 11.82 201.192 11.46C199.707 11.085 198.237 10.785 198.237 9.24C198.237 8.04 199.392 7.17 201.192 7.17C203.052 7.17 204.102 8.145 204.282 9.48H203.082C202.962 8.595 202.287 8.1 201.192 8.1C200.112 8.1 199.467 8.595 199.467 9.18C199.467 9.96 200.262 10.155 201.567 10.485C203.142 10.875 204.387 11.28 204.387 12.81C204.387 14.325 203.187 15.18 201.402 15.18ZM206.388 7.35H207.558V8.595C208.053 7.71 208.878 7.2 210.018 7.2C211.998 7.2 213.288 8.88 213.288 11.19C213.288 13.5 211.998 15.18 210.018 15.18C208.878 15.18 208.053 14.67 207.558 13.785V17.55H206.388V7.35ZM209.778 14.205C211.218 14.205 212.028 12.93 212.028 11.19C212.028 9.45 211.218 8.175 209.778 8.175C208.338 8.175 207.528 9.45 207.528 11.19C207.528 12.93 208.338 14.205 209.778 14.205ZM214.858 11.175C214.858 8.895 216.283 7.2 218.533 7.2C220.858 7.2 222.253 9.105 222.148 11.415H216.118C216.178 13.08 217.048 14.205 218.593 14.205C219.808 14.205 220.453 13.47 220.753 12.57H221.998C221.563 14.1 220.363 15.18 218.593 15.18C216.328 15.18 214.858 13.485 214.858 11.175ZM220.888 10.485C220.663 9.105 219.853 8.175 218.533 8.175C217.198 8.175 216.373 9.09 216.163 10.485H220.888ZM223.69 11.175C223.69 8.895 225.115 7.2 227.365 7.2C229.69 7.2 231.085 9.105 230.98 11.415H224.95C225.01 13.08 225.88 14.205 227.425 14.205C228.64 14.205 229.285 13.47 229.585 12.57H230.83C230.395 14.1 229.195 15.18 227.425 15.18C225.16 15.18 223.69 13.485 223.69 11.175ZM229.72 10.485C229.495 9.105 228.685 8.175 227.365 8.175C226.03 8.175 225.205 9.09 224.995 10.485H229.72ZM235.807 15.18C233.827 15.18 232.537 13.5 232.537 11.19C232.537 8.88 233.827 7.2 235.807 7.2C236.947 7.2 237.772 7.71 238.267 8.595V4.35H239.437V15H238.267V13.785C237.772 14.67 236.947 15.18 235.807 15.18ZM236.047 14.205C237.487 14.205 238.297 12.93 238.297 11.19C238.297 9.45 237.487 8.175 236.047 8.175C234.607 8.175 233.797 9.45 233.797 11.19C233.797 12.93 234.607 14.205 236.047 14.205ZM243.302 13.5V15H241.802V13.5H243.302ZM8.055 44.35H9.33V55H8.055V50.02H2.415V55H1.14V44.35H2.415V48.895H8.055V44.35ZM14.1057 55.18C12.6207 55.18 11.4357 54.34 11.4357 52.855C11.4357 51.28 12.6507 50.89 14.5707 50.365C15.7857 50.035 16.6107 49.87 16.6107 49.195C16.6107 48.595 16.0107 48.115 14.8707 48.115C13.7307 48.115 12.9807 48.595 12.8907 49.57H11.6757C11.8707 48.205 12.9957 47.2 14.8707 47.2C16.7007 47.2 17.7807 48.025 17.7807 49.495V55H16.6557V53.575C16.3707 54.46 15.5457 55.18 14.1057 55.18ZM14.3607 54.28C15.8307 54.28 16.6557 53.02 16.6557 51.625V50.11C16.4457 50.59 15.8607 50.845 14.8857 51.115C13.5657 51.475 12.6957 51.835 12.6957 52.855C12.6957 53.785 13.4157 54.28 14.3607 54.28ZM20.2065 47.35H21.3765V48.64C21.7515 47.905 22.5015 47.2 23.8965 47.2C25.5465 47.2 26.4165 48.145 26.4165 49.645V55H25.2465V49.84C25.2465 48.79 24.7515 48.175 23.4915 48.175C22.3215 48.175 21.3765 49.075 21.3765 50.545V55H20.2065V47.35ZM31.6685 55.18C29.6885 55.18 28.3985 53.5 28.3985 51.19C28.3985 48.88 29.6885 47.2 31.6685 47.2C32.8085 47.2 33.6335 47.71 34.1285 48.595V44.35H35.2985V55H34.1285V53.785C33.6335 54.67 32.8085 55.18 31.6685 55.18ZM31.9085 54.205C33.3485 54.205 34.1585 52.93 34.1585 51.19C34.1585 49.45 33.3485 48.175 31.9085 48.175C30.4685 48.175 29.6585 49.45 29.6585 51.19C29.6585 52.93 30.4685 54.205 31.9085 54.205ZM37.7835 44.35H38.9535V55H37.7835V44.35ZM40.98 51.175C40.98 48.895 42.405 47.2 44.655 47.2C46.98 47.2 48.375 49.105 48.27 51.415H42.24C42.3 53.08 43.17 54.205 44.715 54.205C45.93 54.205 46.575 53.47 46.875 52.57H48.12C47.685 54.1 46.485 55.18 44.715 55.18C42.45 55.18 40.98 53.485 40.98 51.175ZM47.01 50.485C46.785 49.105 45.975 48.175 44.655 48.175C43.32 48.175 42.495 49.09 42.285 50.485H47.01ZM53.1424 55.18C51.0574 55.18 49.8274 54.19 49.6924 52.525H50.9074C51.0274 53.8 51.9724 54.25 53.1424 54.25C54.4024 54.25 54.8974 53.605 54.8974 52.885C54.8974 52.03 54.3424 51.82 52.9324 51.46C51.4474 51.085 49.9774 50.785 49.9774 49.24C49.9774 48.04 51.1324 47.17 52.9324 47.17C54.7924 47.17 55.8424 48.145 56.0224 49.48H54.8224C54.7024 48.595 54.0274 48.1 52.9324 48.1C51.8524 48.1 51.2074 48.595 51.2074 49.18C51.2074 49.96 52.0024 50.155 53.3074 50.485C54.8824 50.875 56.1274 51.28 56.1274 52.81C56.1274 54.325 54.9274 55.18 53.1424 55.18ZM64.5963 55.18C62.5113 55.18 61.2813 54.19 61.1463 52.525H62.3613C62.4813 53.8 63.4263 54.25 64.5963 54.25C65.8563 54.25 66.3513 53.605 66.3513 52.885C66.3513 52.03 65.7963 51.82 64.3863 51.46C62.9013 51.085 61.4313 50.785 61.4313 49.24C61.4313 48.04 62.5863 47.17 64.3863 47.17C66.2463 47.17 67.2963 48.145 67.4763 49.48H66.2763C66.1563 48.595 65.4813 48.1 64.3863 48.1C63.3063 48.1 62.6613 48.595 62.6613 49.18C62.6613 49.96 63.4563 50.155 64.7613 50.485C66.3363 50.875 67.5813 51.28 67.5813 52.81C67.5813 54.325 66.3813 55.18 64.5963 55.18ZM72.8223 48.31H71.1423V53.065C71.1423 53.815 71.2473 54.04 71.9073 54.04H72.8223V55H71.6073C70.3023 55 69.9723 54.4 69.9723 53.14V48.31H68.7723V47.35H69.9723V45.31H71.1423V47.35H72.8223V48.31ZM74.1118 51.175C74.1118 48.895 75.5368 47.2 77.7868 47.2C80.1118 47.2 81.5068 49.105 81.4018 51.415H75.3718C75.4318 53.08 76.3018 54.205 77.8468 54.205C79.0618 54.205 79.7068 53.47 80.0068 52.57H81.2518C80.8168 54.1 79.6168 55.18 77.8468 55.18C75.5818 55.18 74.1118 53.485 74.1118 51.175ZM80.1418 50.485C79.9168 49.105 79.1068 48.175 77.7868 48.175C76.4518 48.175 75.6268 49.09 75.4168 50.485H80.1418ZM82.9443 51.175C82.9443 48.895 84.3693 47.2 86.6193 47.2C88.9443 47.2 90.3393 49.105 90.2343 51.415H84.2043C84.2643 53.08 85.1343 54.205 86.6793 54.205C87.8943 54.205 88.5393 53.47 88.8393 52.57H90.0843C89.6493 54.1 88.4493 55.18 86.6793 55.18C84.4143 55.18 82.9443 53.485 82.9443 51.175ZM88.9743 50.485C88.7493 49.105 87.9393 48.175 86.6193 48.175C85.2843 48.175 84.4593 49.09 84.2493 50.485H88.9743ZM92.2417 47.35H93.4117V48.595C93.9067 47.71 94.7317 47.2 95.8717 47.2C97.8517 47.2 99.1417 48.88 99.1417 51.19C99.1417 53.5 97.8517 55.18 95.8717 55.18C94.7317 55.18 93.9067 54.67 93.4117 53.785V57.55H92.2417V47.35ZM95.6317 54.205C97.0717 54.205 97.8817 52.93 97.8817 51.19C97.8817 49.45 97.0717 48.175 95.6317 48.175C94.1917 48.175 93.3817 49.45 93.3817 51.19C93.3817 52.93 94.1917 54.205 95.6317 54.205ZM108.02 48.31H106.34V53.065C106.34 53.815 106.445 54.04 107.105 54.04H108.02V55H106.805C105.5 55 105.17 54.4 105.17 53.14V48.31H103.97V47.35H105.17V45.31H106.34V47.35H108.02V48.31ZM113.326 47.35H113.851V48.475H113.041C111.736 48.475 111.061 49 111.091 50.65V55H109.921V47.35H111.061V48.775C111.391 47.95 112.126 47.35 113.326 47.35ZM117.456 55.18C115.971 55.18 114.786 54.34 114.786 52.855C114.786 51.28 116.001 50.89 117.921 50.365C119.136 50.035 119.961 49.87 119.961 49.195C119.961 48.595 119.361 48.115 118.221 48.115C117.081 48.115 116.331 48.595 116.241 49.57H115.026C115.221 48.205 116.346 47.2 118.221 47.2C120.051 47.2 121.131 48.025 121.131 49.495V55H120.006V53.575C119.721 54.46 118.896 55.18 117.456 55.18ZM117.711 54.28C119.181 54.28 120.006 53.02 120.006 51.625V50.11C119.796 50.59 119.211 50.845 118.236 51.115C116.916 51.475 116.046 51.835 116.046 52.855C116.046 53.785 116.766 54.28 117.711 54.28ZM123.557 44.35H124.727V45.85H123.557V44.35ZM123.557 47.35H124.727V55H123.557V47.35ZM127.219 44.35H128.389V55H127.219V44.35ZM133.745 55.18C131.66 55.18 130.43 54.19 130.295 52.525H131.51C131.63 53.8 132.575 54.25 133.745 54.25C135.005 54.25 135.5 53.605 135.5 52.885C135.5 52.03 134.945 51.82 133.535 51.46C132.05 51.085 130.58 50.785 130.58 49.24C130.58 48.04 131.735 47.17 133.535 47.17C135.395 47.17 136.445 48.145 136.625 49.48H135.425C135.305 48.595 134.63 48.1 133.535 48.1C132.455 48.1 131.81 48.595 131.81 49.18C131.81 49.96 132.605 50.155 133.91 50.485C135.485 50.875 136.73 51.28 136.73 52.81C136.73 54.325 135.53 55.18 133.745 55.18ZM144.509 55.18C143.024 55.18 141.839 54.34 141.839 52.855C141.839 51.28 143.054 50.89 144.974 50.365C146.189 50.035 147.014 49.87 147.014 49.195C147.014 48.595 146.414 48.115 145.274 48.115C144.134 48.115 143.384 48.595 143.294 49.57H142.079C142.274 48.205 143.399 47.2 145.274 47.2C147.104 47.2 148.184 48.025 148.184 49.495V55H147.059V53.575C146.774 54.46 145.949 55.18 144.509 55.18ZM144.764 54.28C146.234 54.28 147.059 53.02 147.059 51.625V50.11C146.849 50.59 146.264 50.845 145.289 51.115C143.969 51.475 143.099 51.835 143.099 52.855C143.099 53.785 143.819 54.28 144.764 54.28ZM150.61 47.35H151.78V48.64C152.155 47.905 152.905 47.2 154.3 47.2C155.95 47.2 156.82 48.145 156.82 49.645V55H155.65V49.84C155.65 48.79 155.155 48.175 153.895 48.175C152.725 48.175 151.78 49.075 151.78 50.545V55H150.61V47.35ZM162.072 55.18C160.092 55.18 158.802 53.5 158.802 51.19C158.802 48.88 160.092 47.2 162.072 47.2C163.212 47.2 164.037 47.71 164.532 48.595V44.35H165.702V55H164.532V53.785C164.037 54.67 163.212 55.18 162.072 55.18ZM162.312 54.205C163.752 54.205 164.562 52.93 164.562 51.19C164.562 49.45 163.752 48.175 162.312 48.175C160.872 48.175 160.062 49.45 160.062 51.19C160.062 52.93 160.872 54.205 162.312 54.205ZM173.965 55.18C172.48 55.18 171.295 54.34 171.295 52.855C171.295 51.28 172.51 50.89 174.43 50.365C175.645 50.035 176.47 49.87 176.47 49.195C176.47 48.595 175.87 48.115 174.73 48.115C173.59 48.115 172.84 48.595 172.75 49.57H171.535C171.73 48.205 172.855 47.2 174.73 47.2C176.56 47.2 177.64 48.025 177.64 49.495V55H176.515V53.575C176.23 54.46 175.405 55.18 173.965 55.18ZM174.22 54.28C175.69 54.28 176.515 53.02 176.515 51.625V50.11C176.305 50.59 175.72 50.845 174.745 51.115C173.425 51.475 172.555 51.835 172.555 52.855C172.555 53.785 173.275 54.28 174.22 54.28ZM180.066 44.35H181.236V55H180.066V44.35ZM183.727 47.35H184.897V48.595C185.392 47.71 186.217 47.2 187.357 47.2C189.337 47.2 190.627 48.88 190.627 51.19C190.627 53.5 189.337 55.18 187.357 55.18C186.217 55.18 185.392 54.67 184.897 53.785V57.55H183.727V47.35ZM187.117 54.205C188.557 54.205 189.367 52.93 189.367 51.19C189.367 49.45 188.557 48.175 187.117 48.175C185.677 48.175 184.867 49.45 184.867 51.19C184.867 52.93 185.677 54.205 187.117 54.205ZM192.662 44.35H193.832V45.85H192.662V44.35ZM192.662 47.35H193.832V55H192.662V47.35ZM196.324 47.35H197.494V48.64C197.869 47.905 198.619 47.2 200.014 47.2C201.664 47.2 202.534 48.145 202.534 49.645V55H201.364V49.84C201.364 48.79 200.869 48.175 199.609 48.175C198.439 48.175 197.494 49.075 197.494 50.545V55H196.324V47.35ZM204.501 51.175C204.501 48.895 205.926 47.2 208.176 47.2C210.501 47.2 211.896 49.105 211.791 51.415H205.761C205.821 53.08 206.691 54.205 208.236 54.205C209.451 54.205 210.096 53.47 210.396 52.57H211.641C211.206 54.1 210.006 55.18 208.236 55.18C205.971 55.18 204.501 53.485 204.501 51.175ZM210.531 50.485C210.306 49.105 209.496 48.175 208.176 48.175C206.841 48.175 206.016 49.09 205.806 50.485H210.531ZM223.956 52.495C223.566 54.19 222.381 55.18 220.626 55.18C218.406 55.18 216.936 53.485 216.936 51.175C216.936 48.895 218.391 47.2 220.611 47.2C222.381 47.2 223.566 48.205 223.956 49.885H222.711C222.441 48.775 221.736 48.175 220.611 48.175C219.081 48.175 218.196 49.435 218.196 51.175C218.196 52.93 219.096 54.205 220.626 54.205C221.811 54.205 222.441 53.53 222.711 52.495H223.956ZM229.077 55.18C226.857 55.18 225.417 53.485 225.417 51.175C225.417 48.895 226.857 47.2 229.077 47.2C231.297 47.2 232.737 48.895 232.737 51.175C232.737 53.485 231.297 55.18 229.077 55.18ZM229.077 54.205C230.592 54.205 231.477 52.93 231.477 51.175C231.477 49.435 230.592 48.175 229.077 48.175C227.562 48.175 226.677 49.435 226.677 51.175C226.677 52.93 227.562 54.205 229.077 54.205ZM234.758 47.35H235.928V48.64C236.303 47.905 237.053 47.2 238.448 47.2C240.098 47.2 240.968 48.145 240.968 49.645V55H239.798V49.84C239.798 48.79 239.303 48.175 238.043 48.175C236.873 48.175 235.928 49.075 235.928 50.545V55H234.758V47.35ZM246.22 55.18C244.24 55.18 242.95 53.5 242.95 51.19C242.95 48.88 244.24 47.2 246.22 47.2C247.36 47.2 248.185 47.71 248.68 48.595V44.35H249.85V55H248.68V53.785C248.185 54.67 247.36 55.18 246.22 55.18ZM246.46 54.205C247.9 54.205 248.71 52.93 248.71 51.19C248.71 49.45 247.9 48.175 246.46 48.175C245.02 48.175 244.21 49.45 244.21 51.19C244.21 52.93 245.02 54.205 246.46 54.205ZM252.335 44.35H253.505V45.85H252.335V44.35ZM252.335 47.35H253.505V55H252.335V47.35ZM259.237 48.31H257.557V53.065C257.557 53.815 257.662 54.04 258.322 54.04H259.237V55H258.022C256.717 55 256.387 54.4 256.387 53.14V48.31H255.187V47.35H256.387V45.31H257.557V47.35H259.237V48.31ZM261.138 44.35H262.308V45.85H261.138V44.35ZM261.138 47.35H262.308V55H261.138V47.35ZM267.994 55.18C265.774 55.18 264.334 53.485 264.334 51.175C264.334 48.895 265.774 47.2 267.994 47.2C270.214 47.2 271.654 48.895 271.654 51.175C271.654 53.485 270.214 55.18 267.994 55.18ZM267.994 54.205C269.509 54.205 270.394 52.93 270.394 51.175C270.394 49.435 269.509 48.175 267.994 48.175C266.479 48.175 265.594 49.435 265.594 51.175C265.594 52.93 266.479 54.205 267.994 54.205ZM273.675 47.35H274.845V48.64C275.22 47.905 275.97 47.2 277.365 47.2C279.015 47.2 279.885 48.145 279.885 49.645V55H278.715V49.84C278.715 48.79 278.22 48.175 276.96 48.175C275.79 48.175 274.845 49.075 274.845 50.545V55H273.675V47.35ZM285.182 55.18C283.097 55.18 281.867 54.19 281.732 52.525H282.947C283.067 53.8 284.012 54.25 285.182 54.25C286.442 54.25 286.937 53.605 286.937 52.885C286.937 52.03 286.382 51.82 284.972 51.46C283.487 51.085 282.017 50.785 282.017 49.24C282.017 48.04 283.172 47.17 284.972 47.17C286.832 47.17 287.882 48.145 288.062 49.48H286.862C286.742 48.595 286.067 48.1 284.972 48.1C283.892 48.1 283.247 48.595 283.247 49.18C283.247 49.96 284.042 50.155 285.347 50.485C286.922 50.875 288.167 51.28 288.167 52.81C288.167 54.325 286.967 55.18 285.182 55.18ZM291.548 53.5V55H290.048V53.5H291.548ZM2.46 93.845H8.64V95H1.14V84.35H8.565V85.505H2.46V88.895H7.965V90.02H2.46V93.845ZM10.6563 87.35H11.8263V88.64C12.2013 87.905 12.9513 87.2 14.3463 87.2C15.9963 87.2 16.8663 88.145 16.8663 89.645V95H15.6963V89.84C15.6963 88.79 15.2013 88.175 13.9413 88.175C12.7713 88.175 11.8263 89.075 11.8263 90.545V95H10.6563V87.35ZM19.2983 84.35H20.4683V88.64C20.8433 87.905 21.5933 87.2 22.9883 87.2C24.6383 87.2 25.5083 88.145 25.5083 89.645V95H24.3383V89.84C24.3383 88.79 23.8433 88.175 22.5833 88.175C21.4133 88.175 20.4683 89.075 20.4683 90.545V95H19.2983V84.35ZM30.1153 95.18C28.6303 95.18 27.4453 94.34 27.4453 92.855C27.4453 91.28 28.6603 90.89 30.5803 90.365C31.7953 90.035 32.6203 89.87 32.6203 89.195C32.6203 88.595 32.0203 88.115 30.8803 88.115C29.7403 88.115 28.9903 88.595 28.9003 89.57H27.6853C27.8803 88.205 29.0053 87.2 30.8803 87.2C32.7103 87.2 33.7903 88.025 33.7903 89.495V95H32.6653V93.575C32.3803 94.46 31.5553 95.18 30.1153 95.18ZM30.3703 94.28C31.8403 94.28 32.6653 93.02 32.6653 91.625V90.11C32.4553 90.59 31.8703 90.845 30.8953 91.115C29.5753 91.475 28.7053 91.835 28.7053 92.855C28.7053 93.785 29.4253 94.28 30.3703 94.28ZM36.2161 87.35H37.3861V88.64C37.7611 87.905 38.5111 87.2 39.9061 87.2C41.5561 87.2 42.4261 88.145 42.4261 89.645V95H41.2561V89.84C41.2561 88.79 40.7611 88.175 39.5011 88.175C38.3311 88.175 37.3861 89.075 37.3861 90.545V95H36.2161V87.35ZM51.4131 92.495C51.0231 94.19 49.8381 95.18 48.0831 95.18C45.8631 95.18 44.3931 93.485 44.3931 91.175C44.3931 88.895 45.8481 87.2 48.0681 87.2C49.8381 87.2 51.0231 88.205 51.4131 89.885H50.1681C49.8981 88.775 49.1931 88.175 48.0681 88.175C46.5381 88.175 45.6531 89.435 45.6531 91.175C45.6531 92.93 46.5531 94.205 48.0831 94.205C49.2681 94.205 49.8981 93.53 50.1681 92.495H51.4131ZM52.8739 91.175C52.8739 88.895 54.2989 87.2 56.5489 87.2C58.8739 87.2 60.2689 89.105 60.1639 91.415H54.1339C54.1939 93.08 55.0639 94.205 56.6089 94.205C57.8239 94.205 58.4689 93.47 58.7689 92.57H60.0139C59.5789 94.1 58.3789 95.18 56.6089 95.18C54.3439 95.18 52.8739 93.485 52.8739 91.175ZM58.9039 90.485C58.6789 89.105 57.8689 88.175 56.5489 88.175C55.2139 88.175 54.3889 89.09 54.1789 90.485H58.9039ZM65.0364 95.18C62.9514 95.18 61.7214 94.19 61.5864 92.525H62.8014C62.9214 93.8 63.8664 94.25 65.0364 94.25C66.2964 94.25 66.7914 93.605 66.7914 92.885C66.7914 92.03 66.2364 91.82 64.8264 91.46C63.3414 91.085 61.8714 90.785 61.8714 89.24C61.8714 88.04 63.0264 87.17 64.8264 87.17C66.6864 87.17 67.7364 88.145 67.9164 89.48H66.7164C66.5964 88.595 65.9214 88.1 64.8264 88.1C63.7464 88.1 63.1014 88.595 63.1014 89.18C63.1014 89.96 63.8964 90.155 65.2014 90.485C66.7764 90.875 68.0214 91.28 68.0214 92.81C68.0214 94.325 66.8214 95.18 65.0364 95.18ZM76.4903 95.18C74.4053 95.18 73.1753 94.19 73.0403 92.525H74.2553C74.3753 93.8 75.3203 94.25 76.4903 94.25C77.7503 94.25 78.2453 93.605 78.2453 92.885C78.2453 92.03 77.6903 91.82 76.2803 91.46C74.7953 91.085 73.3253 90.785 73.3253 89.24C73.3253 88.04 74.4803 87.17 76.2803 87.17C78.1403 87.17 79.1903 88.145 79.3703 89.48H78.1703C78.0503 88.595 77.3753 88.1 76.2803 88.1C75.2003 88.1 74.5553 88.595 74.5553 89.18C74.5553 89.96 75.3503 90.155 76.6553 90.485C78.2303 90.875 79.4753 91.28 79.4753 92.81C79.4753 94.325 78.2753 95.18 76.4903 95.18ZM84.7163 88.31H83.0363V93.065C83.0363 93.815 83.1413 94.04 83.8013 94.04H84.7163V95H83.5013C82.1963 95 81.8663 94.4 81.8663 93.14V88.31H80.6663V87.35H81.8663V85.31H83.0363V87.35H84.7163V88.31ZM88.719 95.18C87.234 95.18 86.049 94.34 86.049 92.855C86.049 91.28 87.264 90.89 89.184 90.365C90.399 90.035 91.224 89.87 91.224 89.195C91.224 88.595 90.624 88.115 89.484 88.115C88.344 88.115 87.594 88.595 87.504 89.57H86.289C86.484 88.205 87.609 87.2 89.484 87.2C91.314 87.2 92.394 88.025 92.394 89.495V95H91.269V93.575C90.984 94.46 90.159 95.18 88.719 95.18ZM88.974 94.28C90.444 94.28 91.269 93.02 91.269 91.625V90.11C91.059 90.59 90.474 90.845 89.499 91.115C88.179 91.475 87.309 91.835 87.309 92.855C87.309 93.785 88.029 94.28 88.974 94.28ZM98.4498 95.18C97.3098 95.18 96.4848 94.67 95.9898 93.785V95H94.8198V84.35H95.9898V88.595C96.4848 87.71 97.3098 87.2 98.4498 87.2C100.43 87.2 101.72 88.88 101.72 91.19C101.72 93.5 100.43 95.18 98.4498 95.18ZM98.2098 94.205C99.6498 94.205 100.46 92.93 100.46 91.19C100.46 89.45 99.6498 88.175 98.2098 88.175C96.7698 88.175 95.9598 89.45 95.9598 91.19C95.9598 92.93 96.7698 94.205 98.2098 94.205ZM103.755 84.35H104.925V85.85H103.755V84.35ZM103.755 87.35H104.925V95H103.755V87.35ZM107.416 84.35H108.586V95H107.416V84.35ZM111.078 84.35H112.248V85.85H111.078V84.35ZM111.078 87.35H112.248V95H111.078V87.35ZM117.979 88.31H116.299V93.065C116.299 93.815 116.404 94.04 117.064 94.04H117.979V95H116.764C115.459 95 115.129 94.4 115.129 93.14V88.31H113.929V87.35H115.129V85.31H116.299V87.35H117.979V88.31ZM120.3 87.35L122.49 93.59L124.74 87.35H125.955L122.895 95.405C122.28 97.025 121.86 97.55 120.555 97.55H119.7V96.575H120.3C121.14 96.575 121.41 96.41 121.92 95L119.025 87.35H120.3ZM133.265 85.31C132.65 85.31 132.5 85.565 132.5 86.285V87.35H134.18V88.31H132.5V95H131.33V88.31H130.13V87.35H131.33V86.21C131.33 84.95 131.735 84.35 132.965 84.35H134.18V85.31H133.265ZM138.777 95.18C136.557 95.18 135.117 93.485 135.117 91.175C135.117 88.895 136.557 87.2 138.777 87.2C140.997 87.2 142.437 88.895 142.437 91.175C142.437 93.485 140.997 95.18 138.777 95.18ZM138.777 94.205C140.292 94.205 141.177 92.93 141.177 91.175C141.177 89.435 140.292 88.175 138.777 88.175C137.262 88.175 136.377 89.435 136.377 91.175C136.377 92.93 137.262 94.205 138.777 94.205ZM147.863 87.35H148.388V88.475H147.578C146.273 88.475 145.598 89 145.628 90.65V95H144.458V87.35H145.598V88.775C145.928 87.95 146.663 87.35 147.863 87.35ZM156.17 95.18C154.085 95.18 152.855 94.19 152.72 92.525H153.935C154.055 93.8 155 94.25 156.17 94.25C157.43 94.25 157.925 93.605 157.925 92.885C157.925 92.03 157.37 91.82 155.96 91.46C154.475 91.085 153.005 90.785 153.005 89.24C153.005 88.04 154.16 87.17 155.96 87.17C157.82 87.17 158.87 88.145 159.05 89.48H157.85C157.73 88.595 157.055 88.1 155.96 88.1C154.88 88.1 154.235 88.595 154.235 89.18C154.235 89.96 155.03 90.155 156.335 90.485C157.91 90.875 159.155 91.28 159.155 92.81C159.155 94.325 157.955 95.18 156.17 95.18ZM160.691 91.175C160.691 88.895 162.116 87.2 164.366 87.2C166.691 87.2 168.086 89.105 167.981 91.415H161.951C162.011 93.08 162.881 94.205 164.426 94.205C165.641 94.205 166.286 93.47 166.586 92.57H167.831C167.396 94.1 166.196 95.18 164.426 95.18C162.161 95.18 160.691 93.485 160.691 91.175ZM166.721 90.485C166.496 89.105 165.686 88.175 164.366 88.175C163.031 88.175 162.206 89.09 161.996 90.485H166.721ZM173.393 87.35H173.918V88.475H173.108C171.803 88.475 171.128 89 171.158 90.65V95H169.988V87.35H171.128V88.775C171.458 87.95 172.193 87.35 173.393 87.35ZM175.598 84.35H176.768V85.85H175.598V84.35ZM175.598 87.35H176.768V95H175.598V87.35ZM182.454 95.18C180.234 95.18 178.794 93.485 178.794 91.175C178.794 88.895 180.234 87.2 182.454 87.2C184.674 87.2 186.114 88.895 186.114 91.175C186.114 93.485 184.674 95.18 182.454 95.18ZM182.454 94.205C183.969 94.205 184.854 92.93 184.854 91.175C184.854 89.435 183.969 88.175 182.454 88.175C180.939 88.175 180.054 89.435 180.054 91.175C180.054 92.93 180.939 94.205 182.454 94.205ZM190.566 95.18C189.006 95.18 188.076 94.205 188.076 92.705V87.35H189.246V92.51C189.246 93.56 189.756 94.175 190.926 94.175C192.051 94.175 192.996 93.275 192.996 91.805V87.35H194.166V95H192.996V93.71C192.651 94.49 191.931 95.18 190.566 95.18ZM199.525 95.18C197.44 95.18 196.21 94.19 196.075 92.525H197.29C197.41 93.8 198.355 94.25 199.525 94.25C200.785 94.25 201.28 93.605 201.28 92.885C201.28 92.03 200.725 91.82 199.315 91.46C197.83 91.085 196.36 90.785 196.36 89.24C196.36 88.04 197.515 87.17 199.315 87.17C201.175 87.17 202.225 88.145 202.405 89.48H201.205C201.085 88.595 200.41 88.1 199.315 88.1C198.235 88.1 197.59 88.595 197.59 89.18C197.59 89.96 198.385 90.155 199.69 90.485C201.265 90.875 202.51 91.28 202.51 92.81C202.51 94.325 201.31 95.18 199.525 95.18ZM210.289 95.18C208.804 95.18 207.619 94.34 207.619 92.855C207.619 91.28 208.834 90.89 210.754 90.365C211.969 90.035 212.794 89.87 212.794 89.195C212.794 88.595 212.194 88.115 211.054 88.115C209.914 88.115 209.164 88.595 209.074 89.57H207.859C208.054 88.205 209.179 87.2 211.054 87.2C212.884 87.2 213.964 88.025 213.964 89.495V95H212.839V93.575C212.554 94.46 211.729 95.18 210.289 95.18ZM210.544 94.28C212.014 94.28 212.839 93.02 212.839 91.625V90.11C212.629 90.59 212.044 90.845 211.069 91.115C209.749 91.475 208.879 91.835 208.879 92.855C208.879 93.785 209.599 94.28 210.544 94.28ZM219.21 95.18C217.23 95.18 215.94 93.5 215.94 91.19C215.94 88.88 217.23 87.2 219.21 87.2C220.35 87.2 221.175 87.71 221.67 88.595V84.35H222.84V95H221.67V93.785C221.175 94.67 220.35 95.18 219.21 95.18ZM219.45 94.205C220.89 94.205 221.7 92.93 221.7 91.19C221.7 89.45 220.89 88.175 219.45 88.175C218.01 88.175 217.2 89.45 217.2 91.19C217.2 92.93 218.01 94.205 219.45 94.205ZM230.08 87.35H231.31L228.565 95H227.23L224.5 87.35H225.79L227.935 93.8L230.08 87.35ZM232.33 91.175C232.33 88.895 233.755 87.2 236.005 87.2C238.33 87.2 239.725 89.105 239.62 91.415H233.59C233.65 93.08 234.52 94.205 236.065 94.205C237.28 94.205 237.925 93.47 238.225 92.57H239.47C239.035 94.1 237.835 95.18 236.065 95.18C233.8 95.18 232.33 93.485 232.33 91.175ZM238.36 90.485C238.135 89.105 237.325 88.175 236.005 88.175C234.67 88.175 233.845 89.09 233.635 90.485H238.36ZM241.628 87.35H242.798V88.64C243.173 87.905 243.923 87.2 245.318 87.2C246.968 87.2 247.838 88.145 247.838 89.645V95H246.668V89.84C246.668 88.79 246.173 88.175 244.913 88.175C243.743 88.175 242.798 89.075 242.798 90.545V95H241.628V87.35ZM253.451 88.31H251.771V93.065C251.771 93.815 251.876 94.04 252.536 94.04H253.451V95H252.236C250.931 95 250.601 94.4 250.601 93.14V88.31H249.401V87.35H250.601V85.31H251.771V87.35H253.451V88.31ZM257.782 95.18C256.222 95.18 255.292 94.205 255.292 92.705V87.35H256.462V92.51C256.462 93.56 256.972 94.175 258.142 94.175C259.267 94.175 260.212 93.275 260.212 91.805V87.35H261.382V95H260.212V93.71C259.867 94.49 259.147 95.18 257.782 95.18ZM267.282 87.35H267.807V88.475H266.997C265.692 88.475 265.017 89 265.047 90.65V95H263.877V87.35H265.017V88.775C265.347 87.95 266.082 87.35 267.282 87.35ZM268.729 91.175C268.729 88.895 270.154 87.2 272.404 87.2C274.729 87.2 276.124 89.105 276.019 91.415H269.989C270.049 93.08 270.919 94.205 272.464 94.205C273.679 94.205 274.324 93.47 274.624 92.57H275.869C275.434 94.1 274.234 95.18 272.464 95.18C270.199 95.18 268.729 93.485 268.729 91.175ZM274.759 90.485C274.534 89.105 273.724 88.175 272.404 88.175C271.069 88.175 270.244 89.09 270.034 90.485H274.759ZM281.431 87.35H281.956V88.475H281.146C279.841 88.475 279.166 89 279.196 90.65V95H278.026V87.35H279.166V88.775C279.496 87.95 280.231 87.35 281.431 87.35ZM286.34 95.18C284.255 95.18 283.025 94.19 282.89 92.525H284.105C284.225 93.8 285.17 94.25 286.34 94.25C287.6 94.25 288.095 93.605 288.095 92.885C288.095 92.03 287.54 91.82 286.13 91.46C284.645 91.085 283.175 90.785 283.175 89.24C283.175 88.04 284.33 87.17 286.13 87.17C287.99 87.17 289.04 88.145 289.22 89.48H288.02C287.9 88.595 287.225 88.1 286.13 88.1C285.05 88.1 284.405 88.595 284.405 89.18C284.405 89.96 285.2 90.155 286.505 90.485C288.08 90.875 289.325 91.28 289.325 92.81C289.325 94.325 288.125 95.18 286.34 95.18ZM292.706 93.5V95H291.206V93.5H292.706ZM5.655 135.18C2.55 135.18 0.6 132.825 0.6 129.675C0.6 126.525 2.55 124.17 5.655 124.17C8.76 124.17 10.71 126.525 10.71 129.675C10.71 132.825 8.76 135.18 5.655 135.18ZM5.655 134.025C8.055 134.025 9.39 132.135 9.39 129.675C9.39 127.215 8.055 125.325 5.655 125.325C3.255 125.325 1.92 127.215 1.92 129.675C1.92 132.135 3.255 134.025 5.655 134.025ZM15.2836 135.18C13.7236 135.18 12.7936 134.205 12.7936 132.705V127.35H13.9636V132.51C13.9636 133.56 14.4736 134.175 15.6436 134.175C16.7686 134.175 17.7136 133.275 17.7136 131.805V127.35H18.8836V135H17.7136V133.71C17.3686 134.49 16.6486 135.18 15.2836 135.18ZM24.6184 128.31H22.9384V133.065C22.9384 133.815 23.0434 134.04 23.7034 134.04H24.6184V135H23.4034C22.0984 135 21.7684 134.4 21.7684 133.14V128.31H20.5684V127.35H21.7684V125.31H22.9384V127.35H24.6184V128.31ZM26.5194 127.35H27.6894V128.595C28.1844 127.71 29.0094 127.2 30.1494 127.2C32.1294 127.2 33.4194 128.88 33.4194 131.19C33.4194 133.5 32.1294 135.18 30.1494 135.18C29.0094 135.18 28.1844 134.67 27.6894 133.785V137.55H26.5194V127.35ZM29.9094 134.205C31.3494 134.205 32.1594 132.93 32.1594 131.19C32.1594 129.45 31.3494 128.175 29.9094 128.175C28.4694 128.175 27.6594 129.45 27.6594 131.19C27.6594 132.93 28.4694 134.205 29.9094 134.205ZM34.9894 131.175C34.9894 128.895 36.4144 127.2 38.6644 127.2C40.9894 127.2 42.3844 129.105 42.2794 131.415H36.2494C36.3094 133.08 37.1794 134.205 38.7244 134.205C39.9394 134.205 40.5844 133.47 40.8844 132.57H42.1294C41.6944 134.1 40.4944 135.18 38.7244 135.18C36.4594 135.18 34.9894 133.485 34.9894 131.175ZM41.0194 130.485C40.7944 129.105 39.9844 128.175 38.6644 128.175C37.3294 128.175 36.5044 129.09 36.2944 130.485H41.0194ZM47.6918 127.35H48.2168V128.475H47.4068C46.1018 128.475 45.4268 129 45.4568 130.65V135H44.2868V127.35H45.4268V128.775C45.7568 127.95 46.4918 127.35 47.6918 127.35ZM52.3402 125.31C51.7252 125.31 51.5752 125.565 51.5752 126.285V127.35H53.2552V128.31H51.5752V135H50.4052V128.31H49.2052V127.35H50.4052V126.21C50.4052 124.95 50.8102 124.35 52.0402 124.35H53.2552V125.31H52.3402ZM57.8517 135.18C55.6317 135.18 54.1917 133.485 54.1917 131.175C54.1917 128.895 55.6317 127.2 57.8517 127.2C60.0717 127.2 61.5117 128.895 61.5117 131.175C61.5117 133.485 60.0717 135.18 57.8517 135.18ZM57.8517 134.205C59.3667 134.205 60.2517 132.93 60.2517 131.175C60.2517 129.435 59.3667 128.175 57.8517 128.175C56.3367 128.175 55.4517 129.435 55.4517 131.175C55.4517 132.93 56.3367 134.205 57.8517 134.205ZM66.9381 127.35H67.4631V128.475H66.6531C65.3481 128.475 64.6731 129 64.7031 130.65V135H63.5331V127.35H64.6731V128.775C65.0031 127.95 65.7381 127.35 66.9381 127.35ZM69.1429 127.35H70.3129V128.61C70.7779 127.77 71.5429 127.2 72.7429 127.2C73.8229 127.2 74.6029 127.755 74.8729 128.775C75.3079 127.83 76.1779 127.2 77.4079 127.2C78.6679 127.2 79.6579 127.95 79.6579 129.465V135H78.4879V129.825C78.4879 128.715 77.9479 128.175 76.9129 128.175C75.8329 128.175 74.9929 129.105 74.9929 130.53V135H73.8229V129.825C73.8229 128.715 73.2829 128.175 72.2479 128.175C71.1679 128.175 70.3129 129.105 70.3129 130.53V135H69.1429V127.35ZM84.9565 135.18C82.8715 135.18 81.6415 134.19 81.5065 132.525H82.7215C82.8415 133.8 83.7865 134.25 84.9565 134.25C86.2165 134.25 86.7115 133.605 86.7115 132.885C86.7115 132.03 86.1565 131.82 84.7465 131.46C83.2615 131.085 81.7915 130.785 81.7915 129.24C81.7915 128.04 82.9465 127.17 84.7465 127.17C86.6065 127.17 87.6565 128.145 87.8365 129.48H86.6365C86.5165 128.595 85.8415 128.1 84.7465 128.1C83.6665 128.1 83.0215 128.595 83.0215 129.18C83.0215 129.96 83.8165 130.155 85.1215 130.485C86.6965 130.875 87.9415 131.28 87.9415 132.81C87.9415 134.325 86.7415 135.18 84.9565 135.18ZM95.0154 133.83H100.79V135H93.7404V124.35H95.0154V133.83ZM101.693 131.175C101.693 128.895 103.118 127.2 105.368 127.2C107.693 127.2 109.088 129.105 108.983 131.415H102.953C103.013 133.08 103.883 134.205 105.428 134.205C106.643 134.205 107.288 133.47 107.588 132.57H108.833C108.398 134.1 107.198 135.18 105.428 135.18C103.163 135.18 101.693 133.485 101.693 131.175ZM107.723 130.485C107.498 129.105 106.688 128.175 105.368 128.175C104.033 128.175 103.208 129.09 102.998 130.485H107.723ZM116.166 135L113.331 130.845L112.161 131.91V135H110.991V124.35H112.161V130.59L115.686 127.35H117.111L114.141 130.08L117.486 135H116.166ZM118.841 124.35H120.011V125.85H118.841V124.35ZM118.841 127.35H120.011V135H118.841V127.35ZM128.281 135.18C126.796 135.18 125.611 134.34 125.611 132.855C125.611 131.28 126.826 130.89 128.746 130.365C129.961 130.035 130.786 129.87 130.786 129.195C130.786 128.595 130.186 128.115 129.046 128.115C127.906 128.115 127.156 128.595 127.066 129.57H125.851C126.046 128.205 127.171 127.2 129.046 127.2C130.876 127.2 131.956 128.025 131.956 129.495V135H130.831V133.575C130.546 134.46 129.721 135.18 128.281 135.18ZM128.536 134.28C130.006 134.28 130.831 133.02 130.831 131.625V130.11C130.621 130.59 130.036 130.845 129.061 131.115C127.741 131.475 126.871 131.835 126.871 132.855C126.871 133.785 127.591 134.28 128.536 134.28ZM134.382 127.35H135.552V128.64C135.927 127.905 136.677 127.2 138.072 127.2C139.722 127.2 140.592 128.145 140.592 129.645V135H139.422V129.84C139.422 128.79 138.927 128.175 137.667 128.175C136.497 128.175 135.552 129.075 135.552 130.545V135H134.382V127.35ZM145.844 135.18C143.864 135.18 142.574 133.5 142.574 131.19C142.574 128.88 143.864 127.2 145.844 127.2C146.984 127.2 147.809 127.71 148.304 128.595V124.35H149.474V135H148.304V133.785C147.809 134.67 146.984 135.18 145.844 135.18ZM146.084 134.205C147.524 134.205 148.334 132.93 148.334 131.19C148.334 129.45 147.524 128.175 146.084 128.175C144.644 128.175 143.834 129.45 143.834 131.19C143.834 132.93 144.644 134.205 146.084 134.205ZM162.672 124.35H163.947V135H162.672V130.02H157.032V135H155.757V124.35H157.032V128.895H162.672V124.35ZM168.722 135.18C167.237 135.18 166.052 134.34 166.052 132.855C166.052 131.28 167.267 130.89 169.187 130.365C170.402 130.035 171.227 129.87 171.227 129.195C171.227 128.595 170.627 128.115 169.487 128.115C168.347 128.115 167.597 128.595 167.507 129.57H166.292C166.487 128.205 167.612 127.2 169.487 127.2C171.317 127.2 172.397 128.025 172.397 129.495V135H171.272V133.575C170.987 134.46 170.162 135.18 168.722 135.18ZM168.977 134.28C170.447 134.28 171.272 133.02 171.272 131.625V130.11C171.062 130.59 170.477 130.845 169.502 131.115C168.182 131.475 167.312 131.835 167.312 132.855C167.312 133.785 168.032 134.28 168.977 134.28ZM178.228 127.35H178.753V128.475H177.943C176.638 128.475 175.963 129 175.993 130.65V135H174.823V127.35H175.963V128.775C176.293 127.95 177.028 127.35 178.228 127.35ZM183.838 127.35H184.363V128.475H183.553C182.248 128.475 181.573 129 181.603 130.65V135H180.433V127.35H181.573V128.775C181.903 127.95 182.638 127.35 183.838 127.35ZM186.043 124.35H187.213V125.85H186.043V124.35ZM186.043 127.35H187.213V135H186.043V127.35ZM189.239 131.175C189.239 128.895 190.664 127.2 192.914 127.2C195.239 127.2 196.634 129.105 196.529 131.415H190.499C190.559 133.08 191.429 134.205 192.974 134.205C194.189 134.205 194.834 133.47 195.134 132.57H196.379C195.944 134.1 194.744 135.18 192.974 135.18C190.709 135.18 189.239 133.485 189.239 131.175ZM195.269 130.485C195.044 129.105 194.234 128.175 192.914 128.175C191.579 128.175 190.754 129.09 190.544 130.485H195.269ZM201.942 127.35H202.467V128.475H201.657C200.352 128.475 199.677 129 199.707 130.65V135H198.537V127.35H199.677V128.775C200.007 127.95 200.742 127.35 201.942 127.35ZM207.383 127.35H208.553V128.595C209.048 127.71 209.873 127.2 211.013 127.2C212.993 127.2 214.283 128.88 214.283 131.19C214.283 133.5 212.993 135.18 211.013 135.18C209.873 135.18 209.048 134.67 208.553 133.785V137.55H207.383V127.35ZM210.773 134.205C212.213 134.205 213.023 132.93 213.023 131.19C213.023 129.45 212.213 128.175 210.773 128.175C209.333 128.175 208.523 129.45 208.523 131.19C208.523 132.93 209.333 134.205 210.773 134.205ZM219.513 135.18C217.293 135.18 215.853 133.485 215.853 131.175C215.853 128.895 217.293 127.2 219.513 127.2C221.733 127.2 223.173 128.895 223.173 131.175C223.173 133.485 221.733 135.18 219.513 135.18ZM219.513 134.205C221.028 134.205 221.913 132.93 221.913 131.175C221.913 129.435 221.028 128.175 219.513 128.175C217.998 128.175 217.113 129.435 217.113 131.175C217.113 132.93 217.998 134.205 219.513 134.205ZM225.194 124.35H226.364V135H225.194V124.35ZM228.391 131.175C228.391 128.895 229.816 127.2 232.066 127.2C234.391 127.2 235.786 129.105 235.681 131.415H229.651C229.711 133.08 230.581 134.205 232.126 134.205C233.341 134.205 233.986 133.47 234.286 132.57H235.531C235.096 134.1 233.896 135.18 232.126 135.18C229.861 135.18 228.391 133.485 228.391 131.175ZM234.421 130.485C234.196 129.105 233.386 128.175 232.066 128.175C230.731 128.175 229.906 129.09 229.696 130.485H234.421ZM240.553 135.18C238.468 135.18 237.238 134.19 237.103 132.525H238.318C238.438 133.8 239.383 134.25 240.553 134.25C241.813 134.25 242.308 133.605 242.308 132.885C242.308 132.03 241.753 131.82 240.343 131.46C238.858 131.085 237.388 130.785 237.388 129.24C237.388 128.04 238.543 127.17 240.343 127.17C242.203 127.17 243.253 128.145 243.433 129.48H242.233C242.113 128.595 241.438 128.1 240.343 128.1C239.263 128.1 238.618 128.595 238.618 129.18C238.618 129.96 239.413 130.155 240.718 130.485C242.293 130.875 243.538 131.28 243.538 132.81C243.538 134.325 242.338 135.18 240.553 135.18ZM249.142 124.35H250.312V125.85H249.142V124.35ZM249.142 127.35H250.312V135H249.142V127.35ZM252.804 127.35H253.974V128.64C254.349 127.905 255.099 127.2 256.494 127.2C258.144 127.2 259.014 128.145 259.014 129.645V135H257.844V129.84C257.844 128.79 257.349 128.175 256.089 128.175C254.919 128.175 253.974 129.075 253.974 130.545V135H252.804V127.35ZM3.765 155.18C1.785 155.18 0.495 153.5 0.495 151.19C0.495 148.88 1.785 147.2 3.765 147.2C4.905 147.2 5.73 147.71 6.225 148.595V144.35H7.395V155H6.225V153.785C5.73 154.67 4.905 155.18 3.765 155.18ZM4.005 154.205C5.445 154.205 6.255 152.93 6.255 151.19C6.255 149.45 5.445 148.175 4.005 148.175C2.565 148.175 1.755 149.45 1.755 151.19C1.755 152.93 2.565 154.205 4.005 154.205ZM12.31 155.18C10.75 155.18 9.81996 154.205 9.81996 152.705V147.35H10.99V152.51C10.99 153.56 11.5 154.175 12.67 154.175C13.795 154.175 14.74 153.275 14.74 151.805V147.35H15.91V155H14.74V153.71C14.395 154.49 13.675 155.18 12.31 155.18ZM21.8098 147.35H22.3348V148.475H21.5248C20.2198 148.475 19.5448 149 19.5748 150.65V155H18.4048V147.35H19.5448V148.775C19.8748 147.95 20.6098 147.35 21.8098 147.35ZM25.9405 155.18C24.4555 155.18 23.2705 154.34 23.2705 152.855C23.2705 151.28 24.4855 150.89 26.4055 150.365C27.6205 150.035 28.4455 149.87 28.4455 149.195C28.4455 148.595 27.8455 148.115 26.7055 148.115C25.5655 148.115 24.8155 148.595 24.7255 149.57H23.5105C23.7055 148.205 24.8305 147.2 26.7055 147.2C28.5355 147.2 29.6155 148.025 29.6155 149.495V155H28.4905V153.575C28.2055 154.46 27.3805 155.18 25.9405 155.18ZM26.1955 154.28C27.6655 154.28 28.4905 153.02 28.4905 151.625V150.11C28.2805 150.59 27.6955 150.845 26.7205 151.115C25.4005 151.475 24.5305 151.835 24.5305 152.855C24.5305 153.785 25.2505 154.28 26.1955 154.28ZM35.6713 155.18C34.5313 155.18 33.7063 154.67 33.2113 153.785V155H32.0413V144.35H33.2113V148.595C33.7063 147.71 34.5313 147.2 35.6713 147.2C37.6513 147.2 38.9413 148.88 38.9413 151.19C38.9413 153.5 37.6513 155.18 35.6713 155.18ZM35.4313 154.205C36.8713 154.205 37.6813 152.93 37.6813 151.19C37.6813 149.45 36.8713 148.175 35.4313 148.175C33.9913 148.175 33.1813 149.45 33.1813 151.19C33.1813 152.93 33.9913 154.205 35.4313 154.205ZM40.9763 144.35H42.1463V145.85H40.9763V144.35ZM40.9763 147.35H42.1463V155H40.9763V147.35ZM44.6378 144.35H45.8078V155H44.6378V144.35ZM48.2993 144.35H49.4693V145.85H48.2993V144.35ZM48.2993 147.35H49.4693V155H48.2993V147.35ZM55.2008 148.31H53.5208V153.065C53.5208 153.815 53.6258 154.04 54.2858 154.04H55.2008V155H53.9858C52.6808 155 52.3508 154.4 52.3508 153.14V148.31H51.1508V147.35H52.3508V145.31H53.5208V147.35H55.2008V148.31ZM57.5218 147.35L59.7118 153.59L61.9618 147.35H63.1768L60.1168 155.405C59.5018 157.025 59.0818 157.55 57.7768 157.55H56.9218V156.575H57.5218C58.3618 156.575 58.6318 156.41 59.1418 155L56.2468 147.35H57.5218ZM70.2766 155.18C68.7916 155.18 67.6066 154.34 67.6066 152.855C67.6066 151.28 68.8216 150.89 70.7416 150.365C71.9566 150.035 72.7816 149.87 72.7816 149.195C72.7816 148.595 72.1816 148.115 71.0416 148.115C69.9016 148.115 69.1516 148.595 69.0616 149.57H67.8466C68.0416 148.205 69.1666 147.2 71.0416 147.2C72.8716 147.2 73.9516 148.025 73.9516 149.495V155H72.8266V153.575C72.5416 154.46 71.7166 155.18 70.2766 155.18ZM70.5316 154.28C72.0016 154.28 72.8266 153.02 72.8266 151.625V150.11C72.6166 150.59 72.0316 150.845 71.0566 151.115C69.7366 151.475 68.8666 151.835 68.8666 152.855C68.8666 153.785 69.5866 154.28 70.5316 154.28ZM76.3774 147.35H77.5474V148.64C77.9224 147.905 78.6724 147.2 80.0674 147.2C81.7174 147.2 82.5874 148.145 82.5874 149.645V155H81.4174V149.84C81.4174 148.79 80.9224 148.175 79.6624 148.175C78.4924 148.175 77.5474 149.075 77.5474 150.545V155H76.3774V147.35ZM87.8394 155.18C85.8594 155.18 84.5694 153.5 84.5694 151.19C84.5694 148.88 85.8594 147.2 87.8394 147.2C88.9794 147.2 89.8044 147.71 90.2994 148.595V144.35H91.4694V155H90.2994V153.785C89.8044 154.67 88.9794 155.18 87.8394 155.18ZM88.0794 154.205C89.5194 154.205 90.3294 152.93 90.3294 151.19C90.3294 149.45 89.5194 148.175 88.0794 148.175C86.6394 148.175 85.8294 149.45 85.8294 151.19C85.8294 152.93 86.6394 154.205 88.0794 154.205ZM97.0923 151.175C97.0923 148.895 98.5173 147.2 100.767 147.2C103.092 147.2 104.487 149.105 104.382 151.415H98.3523C98.4123 153.08 99.2823 154.205 100.827 154.205C102.042 154.205 102.687 153.47 102.987 152.57H104.232C103.797 154.1 102.597 155.18 100.827 155.18C98.5623 155.18 97.0923 153.485 97.0923 151.175ZM103.122 150.485C102.897 149.105 102.087 148.175 100.767 148.175C99.4323 148.175 98.6073 149.09 98.3973 150.485H103.122ZM108.643 145.31C108.028 145.31 107.878 145.565 107.878 146.285V147.35H109.558V148.31H107.878V155H106.708V148.31H105.508V147.35H106.708V146.21C106.708 144.95 107.113 144.35 108.343 144.35H109.558V145.31H108.643ZM113.652 145.31C113.037 145.31 112.887 145.565 112.887 146.285V147.35H114.567V148.31H112.887V155H111.717V148.31H110.517V147.35H111.717V146.21C111.717 144.95 112.122 144.35 113.352 144.35H114.567V145.31H113.652ZM116.159 144.35H117.329V145.85H116.159V144.35ZM116.159 147.35H117.329V155H116.159V147.35ZM126.376 152.495C125.986 154.19 124.801 155.18 123.046 155.18C120.826 155.18 119.356 153.485 119.356 151.175C119.356 148.895 120.811 147.2 123.031 147.2C124.801 147.2 125.986 148.205 126.376 149.885H125.131C124.861 148.775 124.156 148.175 123.031 148.175C121.501 148.175 120.616 149.435 120.616 151.175C120.616 152.93 121.516 154.205 123.046 154.205C124.231 154.205 124.861 153.53 125.131 152.495H126.376ZM128.301 144.35H129.471V145.85H128.301V144.35ZM128.301 147.35H129.471V155H128.301V147.35ZM131.498 151.175C131.498 148.895 132.923 147.2 135.173 147.2C137.498 147.2 138.893 149.105 138.788 151.415H132.758C132.818 153.08 133.688 154.205 135.233 154.205C136.448 154.205 137.093 153.47 137.393 152.57H138.638C138.203 154.1 137.003 155.18 135.233 155.18C132.968 155.18 131.498 153.485 131.498 151.175ZM137.528 150.485C137.303 149.105 136.493 148.175 135.173 148.175C133.838 148.175 133.013 149.09 132.803 150.485H137.528ZM140.795 147.35H141.965V148.64C142.34 147.905 143.09 147.2 144.485 147.2C146.135 147.2 147.005 148.145 147.005 149.645V155H145.835V149.84C145.835 148.79 145.34 148.175 144.08 148.175C142.91 148.175 141.965 149.075 141.965 150.545V155H140.795V147.35ZM155.992 152.495C155.602 154.19 154.417 155.18 152.662 155.18C150.442 155.18 148.972 153.485 148.972 151.175C148.972 148.895 150.427 147.2 152.647 147.2C154.417 147.2 155.602 148.205 155.992 149.885H154.747C154.477 148.775 153.772 148.175 152.647 148.175C151.117 148.175 150.232 149.435 150.232 151.175C150.232 152.93 151.132 154.205 152.662 154.205C153.847 154.205 154.477 153.53 154.747 152.495H155.992ZM158.236 147.35L160.426 153.59L162.676 147.35H163.891L160.831 155.405C160.216 157.025 159.796 157.55 158.491 157.55H157.636V156.575H158.236C159.076 156.575 159.346 156.41 159.856 155L156.961 147.35H158.236ZM166.007 153.5V155H164.507V153.5H166.007Z" fill="#606060"/>
</svg>
