<svg width="24" height="24" viewBox="0 0 24 24" fill="none" xmlns="http://www.w3.org/2000/svg">
<path d="M12.0422 11.5182C15.0679 11.5182 17.5208 9.51127 17.5208 7.03565C17.5208 4.56003 15.0679 2.55315 12.0422 2.55315C9.0164 2.55315 6.56354 4.56003 6.56354 7.03565C6.56354 9.51127 9.0164 11.5182 12.0422 11.5182Z" stroke="#121212" stroke-width="2"/>
<path d="M12.0446 15.7902C14.9416 15.7902 17.4892 16.2304 19.2503 16.8854C21.155 17.5939 21.568 18.3065 21.568 18.6198C21.5672 18.9335 21.153 19.6442 19.2503 20.352C17.4892 21.007 14.9416 21.4472 12.0446 21.4472C9.14801 21.447 6.60234 21.0069 4.84146 20.352C2.9385 19.6441 2.52197 18.9335 2.52115 18.6198C2.52115 18.3065 2.93652 17.594 4.84146 16.8854C6.60234 16.2305 9.14801 15.7903 12.0446 15.7902Z" stroke="#121212" stroke-width="2"/>
</svg>
